<?xml version="1.0" standalone="no"?>
<!DOCTYPE svg PUBLIC "-//W3C//DTD SVG 20010904//EN"
 "http://www.w3.org/TR/2001/REC-SVG-20010904/DTD/svg10.dtd">
<svg version="1.0" xmlns="http://www.w3.org/2000/svg"
 width="3072.000000pt" height="5376.000000pt" viewBox="0 0 3072.000000 5376.000000"
 preserveAspectRatio="xMidYMid meet">

<g transform="translate(0.000000,5376.000000) scale(0.100000,-0.100000)"
fill="#000000" stroke="none">
<path d="M27085 40003 c17 -3 35 -9 42 -15 26 -21 246 -61 240 -44 -2 6 -23
16 -48 23 -24 7 -62 19 -84 27 -23 9 -69 15 -110 14 -38 -1 -56 -3 -40 -5z"/>
<path d="M27710 39790 c0 -10 14 -14 38 -11 6 1 12 -3 12 -9 0 -6 14 -29 31
-50 37 -46 35 -86 -6 -96 -27 -7 -34 -24 -10 -24 11 0 15 -11 15 -40 0 -29 -4
-40 -15 -40 -8 0 -15 7 -15 15 0 14 -3 13 -25 -2 -20 -15 -24 -27 -25 -65 0
-25 -3 -53 -6 -62 -9 -25 -24 -19 -24 9 0 16 -6 25 -15 25 -11 0 -15 -11 -15
-36 0 -27 -7 -41 -25 -56 -14 -11 -25 -30 -25 -44 0 -19 -5 -24 -24 -24 -13 0
-29 -6 -35 -14 -7 -8 -20 -12 -30 -9 -10 2 -26 -3 -35 -13 -10 -9 -15 -25 -13
-35 3 -10 -1 -23 -9 -30 -11 -9 -14 -8 -14 5 0 12 -10 16 -40 16 l-40 0 0 -80
c0 -79 0 -80 -25 -80 -22 0 -25 -4 -25 -40 0 -29 -4 -40 -15 -40 -11 0 -15 11
-15 40 0 29 -4 40 -15 40 -11 0 -15 -12 -15 -49 0 -41 -4 -53 -25 -69 -14 -11
-25 -23 -25 -27 0 -12 -86 -95 -99 -95 -6 0 -18 -18 -27 -40 -11 -27 -22 -40
-36 -40 -10 0 -29 -12 -41 -26 -22 -25 -26 -25 -189 -31 -93 -3 -168 -10 -168
-15 0 -4 -22 -8 -49 -8 -49 0 -49 0 -66 -45 -10 -25 -24 -50 -31 -56 -8 -6
-14 -27 -14 -46 0 -26 -7 -41 -25 -55 -14 -11 -25 -24 -25 -30 0 -24 -62 -88
-86 -88 -19 0 -24 -5 -24 -25 0 -22 -4 -25 -38 -25 -23 0 -51 -9 -74 -25 -20
-14 -43 -25 -51 -25 -18 0 -77 -65 -77 -85 0 -8 -9 -15 -20 -15 -11 0 -22 -6
-24 -12 -2 -7 -9 -29 -15 -48 -15 -42 -20 -140 -7 -140 4 0 6 -13 3 -28 -3
-16 -2 -54 2 -85 6 -43 4 -60 -6 -68 -7 -6 -13 -22 -13 -35 0 -13 -4 -24 -9
-24 -5 0 -23 -14 -40 -31 -22 -21 -31 -40 -31 -63 0 -17 -5 -37 -11 -43 -6 -6
-16 -21 -23 -34 -11 -22 -53 -53 -88 -65 -9 -3 -18 -16 -20 -28 -3 -18 -11
-21 -50 -24 -34 -2 -48 -7 -48 -18 0 -8 10 -14 25 -14 14 0 25 -4 25 -9 0 -5
-11 -18 -25 -29 -14 -11 -25 -25 -25 -31 0 -6 -7 -11 -16 -11 -12 0 -15 -11
-13 -52 2 -71 -15 -149 -35 -160 -11 -6 -15 -16 -11 -28 6 -19 -4 -47 -27 -72
-20 -21 -38 -56 -38 -73 0 -8 -6 -15 -13 -15 -7 0 -26 -18 -43 -40 -21 -29
-36 -40 -57 -40 -35 0 -108 -46 -114 -71 -3 -12 -11 -18 -19 -15 -8 3 -14 2
-14 -3 0 -5 -11 -12 -25 -15 -15 -4 -27 -16 -31 -31 -8 -32 -24 -32 -24 0 0
14 -4 25 -9 25 -5 0 -18 -11 -29 -25 -11 -14 -25 -25 -31 -25 -6 0 -11 -11
-11 -24 0 -13 -7 -29 -15 -36 -9 -8 -15 -30 -15 -56 0 -24 -4 -44 -10 -44 -5
0 -10 -18 -10 -40 0 -23 -5 -40 -11 -40 -8 0 -8 -5 1 -15 15 -18 6 -47 -13
-43 -13 3 -48 -23 -124 -91 l-38 -33 -5 28 -5 28 -16 -24 c-8 -14 -21 -40 -28
-57 -8 -18 -17 -33 -22 -33 -5 0 -9 -6 -9 -13 0 -8 -18 -19 -40 -26 -23 -7
-40 -18 -40 -26 0 -8 -4 -15 -10 -15 -5 0 -10 -18 -10 -40 0 -22 -4 -40 -9
-40 -5 0 -11 -18 -15 -40 -4 -26 -11 -40 -21 -40 -8 0 -15 -9 -15 -19 0 -11
-20 -41 -43 -66 -41 -43 -47 -46 -90 -44 -32 2 -52 -3 -65 -14 -10 -9 -22 -17
-27 -17 -15 0 -80 -76 -110 -129 -16 -29 -47 -69 -68 -90 -31 -30 -39 -46 -42
-80 -3 -43 -16 -61 -46 -61 -9 0 -27 -12 -40 -27 -14 -16 -44 -37 -67 -48 -37
-18 -42 -24 -42 -55 0 -20 6 -42 12 -48 10 -10 10 -15 -2 -22 -8 -5 -11 -12
-7 -16 3 -4 13 -1 22 6 13 11 19 10 35 -5 20 -18 20 -19 -7 -47 -15 -16 -33
-26 -40 -24 -7 3 -13 1 -13 -5 0 -6 -7 -4 -15 4 -20 20 -54 10 -61 -18 -4 -17
-15 -24 -44 -29 -36 -6 -40 -10 -51 -49 -15 -55 -18 -60 -34 -47 -10 8 -15 6
-20 -10 -3 -11 -11 -18 -16 -14 -15 9 -36 -13 -61 -62 -12 -24 -27 -44 -34
-44 -15 0 -84 -60 -84 -74 -1 -6 -15 -20 -33 -31 -17 -11 -38 -33 -45 -48 -7
-15 -20 -27 -27 -27 -8 0 -20 -9 -27 -20 -7 -11 -17 -20 -23 -20 -6 0 -15 -8
-22 -18 -6 -11 -27 -26 -47 -36 -21 -10 -44 -33 -57 -56 -13 -22 -26 -40 -30
-40 -5 0 -20 -12 -36 -26 -18 -17 -34 -23 -49 -20 -13 4 -27 0 -34 -9 -7 -8
-22 -15 -35 -15 -12 0 -30 -9 -40 -20 -9 -10 -26 -18 -37 -17 -11 1 -25 -7
-32 -17 -6 -11 -24 -35 -41 -54 -16 -19 -31 -43 -31 -53 -1 -11 -12 -31 -24
-44 -19 -21 -22 -31 -17 -70 5 -30 3 -45 -4 -45 -8 0 -7 -5 1 -15 10 -12 10
-19 2 -27 -7 -7 -12 -28 -12 -48 0 -24 -6 -39 -19 -47 -13 -8 -17 -19 -14 -36
5 -28 -7 -40 -31 -31 -19 7 -21 30 -3 37 6 3 2 6 -10 6 -21 1 -83 -51 -83 -70
0 -5 8 -9 18 -9 10 0 4 -7 -17 -17 -18 -9 -38 -27 -44 -40 -5 -13 -16 -23 -22
-23 -7 0 -15 -8 -17 -18 -4 -13 -21 -23 -52 -31 -25 -6 -46 -16 -46 -21 0 -6
-13 -10 -30 -10 -16 0 -30 -5 -30 -12 0 -21 -63 -69 -82 -62 -10 3 -18 2 -18
-3 0 -5 -30 -9 -67 -9 -38 0 -109 -4 -159 -9 -85 -7 -94 -6 -122 14 -37 26
-111 28 -183 5 -33 -11 -63 -14 -94 -9 -43 6 -48 10 -85 70 -47 73 -80 92
-138 79 -50 -11 -166 -10 -227 1 -27 5 -93 10 -145 11 -52 0 -115 6 -140 12
-25 6 -79 12 -120 12 -41 0 -120 7 -175 15 -450 69 -586 70 -830 9 -228 -58
-364 -131 -505 -273 -224 -225 -293 -413 -294 -801 -1 -107 3 -208 7 -223 l8
-28 43 25 c24 14 46 22 50 19 3 -3 6 3 6 14 0 11 14 37 30 58 17 21 30 42 30
47 0 5 5 6 10 3 6 -3 10 0 10 8 0 22 26 41 35 26 5 -7 13 0 21 20 7 17 18 31
25 31 16 0 49 39 49 59 1 15 2 15 13 0 7 -9 18 -14 25 -11 10 3 10 7 2 18 -16
18 -3 36 21 29 12 -4 21 -1 25 9 3 8 19 19 35 25 16 5 29 15 29 20 0 6 7 11
15 11 8 0 15 4 15 10 0 10 68 5 79 -6 3 -3 -1 -11 -9 -17 -14 -12 -33 -41 -62
-97 -7 -13 -25 -38 -40 -54 -16 -17 -28 -34 -28 -39 0 -10 -51 -85 -78 -112
-10 -12 -21 -26 -23 -32 -2 -6 -32 -42 -66 -79 -62 -69 -72 -79 -170 -177 -29
-28 -53 -55 -53 -59 0 -3 -6 -13 -12 -20 -7 -7 -25 -29 -39 -48 -15 -19 -45
-55 -68 -80 -23 -25 -88 -106 -144 -180 -55 -74 -104 -137 -107 -140 -3 -3
-28 -34 -55 -70 -133 -175 -258 -325 -351 -418 -86 -86 -116 -109 -186 -142
-93 -45 -194 -70 -283 -70 -63 0 -217 18 -390 45 -1224 192 -2126 277 -3100
291 -1013 15 -1934 -44 -2940 -187 -402 -57 -1131 -187 -1460 -260 -182 -40
-482 -111 -565 -134 -47 -12 -141 -37 -210 -55 -332 -85 -989 -289 -1290 -400
-47 -17 -141 -51 -210 -74 -114 -40 -172 -62 -377 -141 -79 -31 -236 -97 -308
-130 -27 -13 -122 -55 -210 -95 -205 -93 -641 -307 -815 -400 -165 -88 -477
-271 -627 -366 -200 -128 -642 -430 -663 -454 -3 -3 -30 -23 -60 -45 -30 -22
-57 -42 -60 -45 -3 -3 -32 -25 -64 -50 -66 -50 -220 -171 -251 -197 -11 -10
-60 -51 -110 -92 -85 -71 -117 -99 -169 -146 -13 -11 -54 -47 -92 -80 -116
-101 -446 -434 -610 -617 -13 -15 -24 -32 -24 -37 0 -6 -4 -11 -9 -11 -5 0
-28 -26 -52 -57 -57 -73 -89 -111 -117 -138 -12 -12 -22 -27 -22 -34 0 -6 -4
-11 -10 -11 -5 0 -24 -21 -41 -47 -18 -27 -35 -50 -38 -53 -6 -5 -36 -44 -117
-150 -70 -93 -94 -128 -94 -137 0 -4 -14 -21 -30 -37 -17 -16 -30 -35 -30 -41
0 -7 -11 -25 -26 -41 -14 -16 -34 -47 -45 -69 -32 -64 -53 -99 -64 -107 -5 -4
-10 -11 -11 -15 -4 -35 -29 -103 -38 -103 -6 0 -12 -17 -12 -37 -1 -21 -15
-65 -32 -98 -16 -33 -33 -67 -36 -75 -3 -8 -15 -28 -26 -45 -11 -16 -22 -37
-26 -45 -13 -33 -25 -59 -69 -153 -25 -54 -68 -155 -95 -225 -28 -70 -54 -134
-59 -142 -4 -8 -16 -42 -26 -75 -10 -33 -22 -65 -26 -70 -7 -10 -71 -215 -89
-285 -5 -19 -18 -69 -29 -110 -51 -195 -83 -329 -87 -365 -3 -22 -11 -62 -19
-90 -8 -27 -21 -108 -30 -180 -9 -71 -18 -137 -20 -145 -2 -8 -6 -67 -9 -130
-26 -526 -10 -845 60 -1205 20 -104 55 -248 94 -385 11 -41 30 -111 41 -155
11 -44 24 -89 29 -100 5 -11 21 -56 36 -100 15 -44 33 -93 39 -110 7 -16 18
-46 25 -65 20 -59 26 -73 53 -133 15 -31 27 -61 27 -66 0 -5 22 -55 48 -112
26 -57 57 -124 67 -149 11 -25 22 -47 26 -50 9 -8 69 -136 69 -149 0 -6 4 -11
8 -11 4 0 16 -15 27 -32 10 -18 42 -70 72 -115 29 -46 53 -85 53 -87 0 -3 22
-38 49 -78 26 -40 51 -83 55 -96 4 -12 11 -22 16 -22 4 0 21 -21 36 -47 16
-27 33 -55 39 -65 12 -20 127 -171 135 -178 4 -3 40 -50 82 -105 41 -55 88
-112 104 -126 16 -14 49 -49 74 -78 85 -98 524 -529 595 -583 33 -25 72 -57
89 -74 6 -6 40 -32 75 -58 36 -26 75 -58 87 -72 13 -13 28 -24 34 -24 5 0 27
-17 48 -37 63 -63 154 -133 163 -127 5 3 9 -4 9 -15 0 -13 14 -27 45 -42 25
-12 45 -26 45 -30 0 -3 8 -9 18 -13 9 -3 31 -15 47 -26 17 -11 37 -23 45 -27
15 -7 50 -36 82 -66 10 -9 20 -17 23 -17 3 0 24 -13 47 -30 22 -16 47 -30 55
-30 7 0 16 -7 20 -15 7 -19 86 -75 106 -75 8 0 17 -7 21 -15 3 -9 18 -15 36
-15 18 0 33 -6 36 -15 4 -8 16 -15 29 -15 15 0 25 -7 28 -21 3 -12 11 -19 19
-16 7 2 26 -2 41 -10 15 -8 33 -11 39 -7 7 5 9 2 5 -9 -4 -11 -2 -14 9 -10 10
4 14 -2 14 -20 0 -24 3 -25 36 -20 31 5 35 3 32 -13 -2 -12 5 -22 20 -29 12
-5 22 -15 22 -22 0 -7 5 -13 11 -13 6 0 23 -9 38 -19 15 -11 59 -36 98 -55 38
-19 76 -42 83 -51 7 -8 18 -15 24 -15 6 0 22 -9 36 -20 14 -11 34 -20 45 -20
11 0 28 -9 38 -20 15 -18 35 -25 59 -21 4 0 24 -8 43 -19 20 -11 46 -20 60
-20 13 0 30 -7 39 -15 8 -8 18 -15 23 -15 13 -1 53 -37 53 -49 0 -14 17 -14
25 -1 12 20 45 10 55 -16 6 -14 15 -22 21 -19 5 4 19 -1 29 -10 11 -10 28 -15
40 -12 13 3 24 -1 30 -13 5 -10 22 -21 37 -25 26 -7 26 -8 8 -15 -17 -7 -17
-9 -2 -9 9 -1 17 -5 17 -11 0 -5 6 -10 13 -10 7 0 20 -9 29 -19 9 -11 35 -25
57 -31 22 -6 43 -15 46 -20 4 -6 11 -8 16 -5 5 4 36 -10 69 -29 34 -20 68 -36
76 -36 7 0 14 -7 14 -15 0 -8 6 -15 14 -15 7 0 19 -7 26 -15 7 -8 28 -17 47
-21 19 -4 37 -13 40 -20 3 -8 14 -14 25 -14 11 0 27 -7 35 -16 9 -8 24 -13 34
-11 12 3 19 0 19 -8 0 -8 10 -16 23 -20 12 -3 40 -11 62 -16 22 -6 63 -22 90
-35 28 -13 62 -28 78 -33 15 -6 27 -15 27 -21 0 -6 9 -6 26 0 14 6 23 6 20 1
-8 -12 21 -34 34 -26 6 4 19 0 28 -8 9 -8 45 -22 80 -30 34 -9 69 -23 78 -31
8 -9 27 -17 42 -18 15 0 38 -2 52 -3 33 -2 98 -40 123 -71 11 -14 25 -23 33
-20 7 3 16 1 19 -4 4 -6 1 -10 -4 -10 -6 0 -11 -4 -11 -10 0 -5 9 -10 19 -10
10 0 21 -6 24 -14 4 -9 19 -14 41 -13 51 1 65 -16 31 -39 -16 -10 -29 -14 -33
-8 -4 5 -32 16 -62 23 -30 8 -64 20 -76 28 -11 7 -23 10 -27 7 -7 -7 -77 17
-77 28 0 4 -7 5 -15 1 -16 -6 -85 9 -145 32 -50 19 -74 28 -80 30 -3 1 -16 6
-30 12 -14 6 -45 19 -70 28 -25 10 -54 21 -65 26 -11 5 -49 18 -85 30 -36 12
-67 25 -70 28 -3 4 -43 22 -90 40 -47 18 -96 39 -110 46 -14 6 -41 19 -60 27
-19 8 -60 26 -90 41 -30 14 -67 29 -83 32 -15 4 -27 10 -27 14 0 8 -71 41 -89
41 -7 0 -29 9 -49 20 -20 10 -64 31 -97 45 -87 38 -128 58 -145 72 -9 7 -47
24 -85 38 -39 15 -77 32 -85 39 -8 7 -36 20 -62 30 -50 18 -73 39 -73 65 0 10
-7 15 -19 13 -42 -7 -153 19 -178 43 -15 13 -39 27 -55 31 -15 4 -64 26 -108
49 -44 24 -125 66 -180 95 -55 28 -105 56 -112 62 -20 16 -122 78 -193 115
-36 20 -116 70 -179 112 -63 42 -122 81 -130 86 -9 6 -18 13 -21 16 -3 3 -20
14 -39 24 -36 18 -192 123 -201 135 -3 3 -32 25 -65 47 -49 33 -148 108 -245
186 -9 7 -42 32 -75 57 -33 24 -85 67 -115 95 -31 27 -98 84 -150 126 -52 43
-105 86 -117 98 -12 12 -24 21 -26 21 -15 0 -511 488 -520 513 -8 20 -37 23
-37 4 0 -8 9 -24 20 -37 11 -13 20 -27 20 -32 0 -4 7 -8 15 -8 8 0 15 -7 15
-16 0 -15 29 -55 83 -114 41 -44 157 -207 157 -219 0 -7 4 -9 10 -6 5 3 15 -4
20 -17 6 -13 28 -33 48 -45 26 -16 32 -22 18 -23 -15 0 -8 -12 33 -57 73 -82
81 -92 81 -102 0 -5 9 -12 19 -16 10 -3 21 -15 24 -26 3 -11 15 -23 26 -26 12
-3 21 -10 21 -16 0 -21 45 -77 63 -77 9 0 16 -3 15 -7 -5 -19 15 -53 31 -53
10 0 24 -7 31 -15 7 -8 9 -15 4 -15 -4 0 9 -16 30 -35 21 -19 47 -35 58 -35
17 0 18 -3 8 -14 -9 -12 -2 -24 38 -65 28 -27 53 -47 56 -43 3 3 6 -4 6 -16 0
-12 5 -22 10 -22 6 0 10 -9 10 -21 0 -15 5 -19 18 -15 13 4 23 -1 32 -19 7
-14 19 -25 26 -25 7 0 16 -5 20 -12 5 -7 2 -8 -7 -3 -8 5 -3 -4 10 -18 14 -15
31 -27 38 -27 8 0 17 -8 20 -17 4 -10 38 -48 75 -85 37 -37 68 -73 68 -79 0
-7 5 -28 12 -46 10 -27 17 -33 40 -33 25 0 28 -3 28 -35 0 -29 4 -36 25 -41
25 -6 85 -72 85 -92 0 -6 11 -19 25 -30 14 -11 25 -25 25 -31 0 -6 7 -11 15
-11 11 0 15 -11 15 -36 0 -27 7 -41 26 -57 20 -15 25 -27 22 -49 -3 -16 -1
-31 4 -34 4 -3 8 0 8 5 0 6 8 11 18 11 20 0 52 -79 52 -129 0 -24 4 -31 20
-31 13 0 20 -7 20 -19 0 -11 9 -23 20 -26 12 -4 20 -15 20 -28 0 -13 9 -26 23
-32 12 -6 26 -20 32 -33 5 -12 15 -22 21 -22 13 0 79 -63 87 -83 4 -12 24 -23
80 -46 21 -8 27 -16 23 -29 -4 -13 3 -23 25 -36 17 -10 52 -38 76 -62 24 -24
46 -44 49 -44 4 0 29 -22 69 -60 12 -11 25 -20 30 -20 6 0 33 -24 61 -52 51
-53 102 -97 181 -160 23 -18 42 -38 42 -45 1 -6 9 -9 19 -6 13 3 38 -13 78
-51 32 -31 63 -56 68 -56 17 0 76 -45 76 -57 0 -7 6 -13 13 -13 7 0 20 -8 29
-17 27 -29 46 -43 60 -43 16 -1 59 -36 57 -47 -4 -20 2 -34 14 -32 26 3 46 -1
59 -14 20 -18 51 -37 71 -44 10 -3 16 -12 13 -19 -3 -8 0 -11 8 -8 7 3 21 -4
31 -16 10 -11 24 -20 30 -20 17 0 63 -39 47 -40 -7 0 -10 -5 -7 -10 4 -6 11
-7 17 -4 6 4 17 -1 24 -11 7 -10 20 -15 28 -12 15 6 40 -15 30 -26 -3 -3 4
-10 15 -17 12 -6 21 -16 20 -23 0 -9 -2 -9 -6 1 -6 14 -33 16 -33 2 0 -5 5
-10 10 -10 6 0 10 -5 10 -11 0 -6 -15 -2 -35 10 -61 36 -37 4 28 -37 70 -44
173 -102 181 -102 4 0 6 7 6 16 0 8 5 12 10 9 6 -4 8 -14 5 -24 -3 -11 5 -22
26 -35 38 -22 48 -15 19 14 -23 23 -20 41 4 21 11 -9 15 -9 19 1 3 7 6 -5 6
-27 1 -36 5 -42 41 -63 26 -15 49 -21 67 -17 18 3 22 3 10 -3 -16 -7 -16 -8 1
-23 10 -9 32 -23 48 -31 29 -15 76 -42 164 -91 193 -109 632 -328 805 -402 55
-24 135 -59 178 -79 42 -20 79 -36 82 -36 2 0 33 -13 67 -29 35 -15 122 -54
193 -86 72 -31 143 -63 159 -71 16 -8 35 -14 41 -14 7 0 18 -6 24 -14 10 -11
8 -15 -6 -19 -12 -3 -8 -5 10 -6 28 -1 39 -21 12 -21 -22 0 -19 -66 5 -105 11
-18 36 -45 55 -59 23 -18 35 -35 35 -52 0 -15 6 -24 15 -24 8 0 22 -18 31 -40
10 -26 23 -40 34 -40 11 0 24 -14 34 -40 9 -22 23 -40 31 -40 8 0 15 -4 15 -9
0 -5 18 -16 40 -25 31 -12 40 -21 40 -40 0 -24 51 -86 71 -86 5 0 9 -4 9 -9 0
-12 59 -71 71 -71 5 0 9 5 9 10 0 6 5 10 10 10 6 0 10 -9 10 -19 0 -11 13 -31
30 -44 16 -14 30 -32 30 -41 0 -8 20 -22 46 -32 30 -11 50 -27 60 -46 8 -16
31 -39 50 -50 19 -11 31 -24 28 -29 -3 -5 8 -14 23 -21 15 -7 30 -15 33 -18 3
-3 17 -11 33 -18 15 -6 26 -17 25 -23 -2 -7 21 -24 49 -38 40 -19 53 -31 53
-48 0 -17 11 -27 45 -42 29 -13 43 -25 40 -33 -4 -9 11 -22 45 -37 27 -12 50
-27 50 -32 0 -5 10 -9 22 -9 20 0 20 -1 4 -19 -13 -15 -14 -21 -5 -27 7 -4 15
-2 17 4 8 25 24 11 18 -15 -4 -18 -3 -23 2 -14 12 17 50 -6 87 -55 17 -22 34
-34 51 -34 19 0 24 -5 24 -23 0 -32 30 -57 68 -57 21 0 40 -10 61 -31 17 -17
31 -35 31 -40 0 -5 5 -9 11 -9 6 0 20 -11 31 -25 11 -14 25 -25 32 -25 7 0 31
-17 54 -38 48 -44 96 -72 123 -72 13 0 24 -13 35 -40 15 -37 34 -54 34 -29 0
6 6 9 13 6 6 -2 12 -10 12 -18 0 -7 14 -18 30 -22 48 -15 59 -22 73 -50 14
-29 27 -34 36 -14 4 8 8 9 11 1 3 -6 12 -20 19 -30 12 -15 16 -16 30 -5 9 7
16 9 16 4 0 -5 14 -14 30 -20 17 -6 29 -17 28 -23 -2 -7 3 -15 10 -17 6 -3 12
0 12 6 0 19 24 12 38 -10 7 -11 29 -27 49 -36 27 -11 33 -17 23 -23 -15 -9 -9
-12 83 -45 26 -9 47 -20 47 -24 0 -4 17 -16 37 -27 21 -10 40 -21 43 -24 17
-17 72 -38 88 -33 13 3 21 -2 25 -16 3 -11 21 -30 41 -42 20 -11 36 -27 36
-33 0 -7 9 -21 21 -32 17 -15 22 -16 29 -4 7 12 11 12 25 0 10 -8 21 -24 26
-37 8 -23 29 -32 29 -13 0 15 40 12 46 -4 3 -8 26 -24 50 -36 25 -11 42 -25
39 -30 -8 -13 29 -30 67 -30 23 0 37 -7 48 -23 8 -12 13 -25 12 -29 -1 -4 15
-10 36 -14 20 -4 51 -13 69 -21 18 -7 51 -13 73 -13 36 0 40 -3 40 -24 0 -20
9 -28 45 -41 25 -10 50 -24 56 -31 6 -8 22 -14 35 -14 13 0 24 -4 24 -9 0 -5
14 -23 31 -40 21 -22 40 -31 63 -31 17 0 37 -5 43 -11 6 -6 22 -17 35 -23 12
-6 29 -24 36 -39 13 -26 32 -37 32 -17 0 16 46 12 60 -5 7 -8 18 -15 25 -15 8
0 22 -11 33 -25 20 -25 42 -33 42 -15 0 6 18 10 40 10 22 0 40 -4 40 -10 0 -5
-7 -10 -16 -10 -14 0 -14 -3 -4 -15 7 -8 18 -15 25 -15 8 0 22 -11 33 -25 23
-29 42 -33 42 -9 0 13 3 14 15 4 8 -7 12 -16 9 -22 -3 -5 8 -14 25 -21 17 -6
31 -15 31 -19 0 -4 18 -8 40 -8 29 0 40 -4 40 -15 0 -9 9 -15 23 -15 13 0 27
-3 30 -7 4 -3 29 -14 56 -24 36 -12 51 -14 55 -6 3 8 14 1 30 -15 27 -30 42
-35 49 -15 4 9 7 9 18 -1 7 -6 23 -12 36 -12 14 0 23 -6 23 -15 0 -11 11 -15
38 -15 28 -1 41 -7 55 -25 15 -22 16 -25 2 -25 -8 0 -15 -4 -15 -10 0 -5 18
-10 40 -10 22 0 40 5 40 10 0 18 22 10 42 -15 11 -14 25 -25 33 -25 7 0 18 -7
25 -15 7 -8 23 -15 36 -15 15 0 24 -6 24 -15 0 -11 12 -15 49 -15 41 0 53 -4
69 -25 23 -28 42 -33 42 -9 0 12 10 8 39 -15 21 -17 40 -28 43 -26 3 3 21 -1
41 -10 27 -11 37 -12 41 -2 3 8 13 3 30 -16 14 -15 30 -27 36 -27 5 0 10 -4
10 -10 0 -5 20 -10 44 -10 55 0 116 -25 116 -48 1 -12 5 -9 16 11 19 34 29 34
48 0 12 -21 15 -24 16 -10 0 16 6 14 39 -12 29 -23 49 -31 80 -31 23 0 41 -4
41 -8 0 -4 14 -13 30 -19 17 -6 29 -17 28 -23 -2 -7 3 -15 10 -17 6 -3 12 0
12 6 0 6 18 11 40 11 29 0 40 -4 40 -15 0 -11 11 -15 40 -15 22 0 40 -4 40
-10 0 -5 20 -10 44 -10 26 0 48 -6 56 -15 7 -8 9 -15 4 -15 -5 0 0 -7 10 -15
12 -9 42 -15 73 -15 29 0 53 -4 53 -10 0 -5 18 -10 40 -10 29 0 40 -4 40 -15
0 -11 11 -15 39 -15 22 0 41 -4 43 -10 5 -14 78 -42 78 -30 0 5 18 10 40 10
22 0 40 -4 40 -10 0 -6 33 -10 80 -10 64 0 80 -3 80 -15 0 -11 12 -15 51 -15
43 0 54 -4 71 -25 18 -23 25 -25 109 -25 72 0 89 -3 89 -15 0 -9 9 -15 22 -15
12 0 30 -7 40 -17 17 -15 18 -15 18 0 0 25 18 21 46 -11 17 -18 27 -23 31 -14
6 14 83 17 83 2 0 -5 18 -10 40 -10 29 0 40 -4 40 -15 0 -11 12 -15 50 -15 43
0 55 -4 76 -28 17 -18 27 -23 31 -14 2 6 22 12 44 12 35 0 39 -3 39 -25 0 -25
1 -25 80 -25 64 0 80 3 80 15 0 11 11 15 40 15 29 0 40 -4 40 -15 0 -9 9 -15
24 -15 13 0 29 -7 36 -15 9 -11 34 -15 96 -15 49 0 84 -4 84 -10 0 -6 33 -10
80 -10 64 0 80 -3 80 -15 0 -12 20 -15 120 -15 100 0 120 -2 120 -15 0 -13 24
-15 160 -15 100 0 160 -4 160 -10 0 -6 60 -10 160 -10 136 0 160 -2 160 -15 0
-11 11 -15 40 -15 29 0 40 4 40 15 0 11 11 15 40 15 29 0 40 -4 40 -15 0 -11
11 -15 40 -15 29 0 40 -4 40 -15 0 -11 11 -15 39 -15 22 0 41 -4 43 -9 2 -5
37 -11 78 -14 41 -2 58 -2 38 0 -22 2 -38 10 -38 17 0 10 40 12 198 8 108 -2
199 -9 200 -13 5 -12 82 -11 82 1 0 6 60 10 160 10 l160 0 0 30 0 30 80 0 80
0 0 -30 c0 -28 2 -30 40 -30 29 0 40 4 40 15 0 11 11 15 40 15 29 0 40 4 40
15 0 11 11 15 40 15 22 0 40 5 40 10 0 6 47 10 120 10 100 0 120 3 120 15 0
23 18 18 46 -13 17 -18 27 -23 31 -14 3 8 30 12 84 12 64 0 79 3 79 15 0 11
-11 15 -40 15 -29 0 -40 4 -40 15 0 13 20 15 120 15 73 0 120 4 120 10 0 6 60
10 160 10 136 0 160 2 160 15 0 12 -16 15 -80 15 -64 0 -80 3 -80 15 0 13 20
15 120 15 73 0 120 4 120 10 0 15 77 12 83 -2 2 -8 10 -1 17 14 16 35 23 35
41 1 l14 -28 3 43 c3 42 3 42 43 42 28 0 39 -4 39 -15 0 -11 11 -15 40 -15
l40 0 0 40 0 40 40 0 c29 0 40 -4 40 -15 0 -11 11 -15 40 -15 29 0 40 4 40 15
0 11 -11 15 -40 15 -29 0 -40 4 -40 15 0 12 16 15 80 15 64 0 80 -3 80 -15 0
-23 18 -18 46 12 17 19 27 24 31 16 2 -7 22 -13 44 -13 39 0 39 0 39 40 l0 40
40 0 c22 0 40 5 40 10 0 6 33 10 80 10 64 0 80 3 80 15 0 8 -7 15 -16 15 -14
0 -15 2 -3 17 13 15 14 15 17 0 3 -14 17 -17 83 -17 78 0 79 0 79 25 0 23 4
25 40 25 38 0 40 2 40 30 0 28 2 30 40 30 36 0 40 3 40 25 0 23 4 25 40 25 29
0 40 -4 40 -15 0 -11 11 -15 40 -15 29 0 40 4 40 15 0 11 -11 15 -40 15 -29 0
-40 4 -40 15 0 12 16 15 80 15 47 0 80 4 80 10 0 6 18 10 40 10 29 0 40 4 40
15 0 11 -11 15 -40 15 -29 0 -40 4 -40 15 0 12 16 15 80 15 64 0 80 -3 80 -15
0 -8 7 -15 15 -15 11 0 15 11 15 40 0 36 3 40 25 40 16 0 25 6 25 15 0 11 11
15 40 15 36 0 40 3 40 25 0 23 4 25 40 25 29 0 40 4 40 15 0 11 11 15 40 15
22 0 40 5 40 10 0 6 18 10 40 10 36 0 40 -2 40 -25 0 -16 6 -25 15 -25 11 0
15 11 15 40 l0 40 -40 0 c-45 0 -50 8 -19 36 16 14 23 15 26 7 3 -8 21 -13 44
-13 35 0 39 3 39 25 0 23 4 25 40 25 29 0 40 4 40 15 0 11 11 15 40 15 29 0
40 -4 40 -15 0 -8 7 -15 15 -15 11 0 15 11 15 40 l0 40 65 0 65 0 0 55 0 55
40 0 c22 0 40 5 40 10 0 6 18 10 40 10 36 0 40 -2 40 -25 0 -16 6 -25 15 -25
11 0 15 12 15 49 0 41 4 53 25 69 15 12 25 30 25 46 0 24 4 26 40 26 29 0 40
-4 40 -15 0 -11 11 -15 40 -15 l40 0 0 40 0 40 51 0 c43 0 54 4 71 25 16 21
28 25 69 25 37 0 49 4 49 15 0 12 14 15 65 15 l65 0 0 40 c0 29 4 40 15 40 8
0 15 -7 15 -15 0 -11 11 -15 40 -15 l40 0 0 55 0 55 -40 0 c-29 0 -40 4 -40
15 0 11 11 15 40 15 l40 0 0 40 0 40 40 0 c36 0 40 3 40 25 0 24 2 25 65 25
l65 0 0 80 c0 64 3 80 15 80 11 0 15 -11 15 -40 0 -29 4 -40 15 -40 11 0 15
11 15 40 0 36 3 40 25 40 16 0 25 6 25 15 0 11 11 15 40 15 22 0 40 5 40 10 0
6 18 10 40 10 l40 0 0 55 c0 42 -3 55 -15 55 -11 0 -15 11 -15 40 0 29 4 40
15 40 8 0 15 -7 15 -15 0 -11 11 -15 40 -15 29 0 40 4 40 15 0 8 -7 15 -15 15
-11 0 -15 12 -15 44 0 26 6 48 15 56 13 11 15 8 15 -19 0 -30 2 -31 40 -31 29
0 40 4 40 15 0 12 16 15 80 15 l80 0 0 80 c0 64 3 80 15 80 11 0 15 11 15 40
0 22 5 40 10 40 6 0 10 18 10 40 0 29 4 40 15 40 12 0 15 -13 15 -56 0 -49 2
-55 15 -44 9 8 15 30 15 56 0 40 2 44 25 44 20 0 25 5 25 25 0 23 4 25 40 25
l40 0 0 55 0 55 45 0 c43 0 45 1 56 40 7 22 16 40 21 40 4 0 8 18 8 40 l0 40
40 0 40 0 0 80 c0 64 3 80 15 80 12 0 15 -16 15 -80 l0 -80 40 0 40 0 0 80 c0
64 -3 80 -15 80 -12 0 -15 16 -15 80 0 64 3 80 15 80 11 0 15 -11 15 -40 l0
-40 40 0 40 0 0 80 c0 64 3 80 15 80 11 0 15 11 15 38 1 28 7 41 25 55 22 15
25 16 25 2 0 -11 11 -15 40 -15 l40 0 0 65 0 65 39 0 c34 0 40 4 45 26 4 15 4
57 0 95 l-7 69 97 0 96 0 0 40 c0 29 -4 40 -15 40 -11 0 -15 11 -15 40 l0 40
40 0 40 0 0 40 c0 29 -4 40 -15 40 -11 0 -15 11 -15 40 0 29 4 40 15 40 11 0
15 11 15 40 0 29 4 40 15 40 11 0 15 11 15 40 0 29 -4 40 -15 40 -8 0 -15 7
-15 15 0 11 11 15 40 15 29 0 40 -4 40 -15 0 -8 7 -15 15 -15 11 0 15 11 15
40 0 36 3 40 25 40 25 0 25 1 25 80 0 64 3 80 15 80 11 0 15 11 15 40 0 22 5
40 10 40 6 0 10 18 10 40 0 29 4 40 15 40 11 0 15 -11 15 -40 0 -29 4 -40 15
-40 11 0 15 11 15 40 0 29 -4 40 -15 40 -11 0 -15 11 -15 40 0 36 3 40 25 40
25 0 25 1 25 80 0 64 3 80 15 80 11 0 15 -11 15 -40 0 -29 4 -40 15 -40 11 0
15 11 15 40 0 29 -4 40 -15 40 -11 0 -15 11 -15 40 l0 40 40 0 40 0 0 80 c0
64 3 80 15 80 11 0 15 11 15 40 l0 40 -55 0 c-42 0 -55 3 -55 15 0 11 11 15
40 15 36 0 40 3 40 25 0 16 -6 25 -15 25 -12 0 -15 16 -15 80 0 64 3 80 15 80
13 0 15 20 15 120 l0 120 40 0 40 0 0 80 c0 64 3 80 15 80 11 0 15 11 15 40 0
29 -4 40 -15 40 -11 0 -15 11 -15 40 0 30 4 40 16 40 15 0 16 16 12 157 -4
102 -10 159 -17 161 -7 2 -11 33 -11 83 0 64 3 79 15 79 13 0 15 24 15 160 0
100 4 160 10 160 6 0 10 60 10 160 0 100 -4 160 -10 160 -5 0 -10 18 -10 40 0
22 5 40 10 40 6 0 10 18 10 40 0 35 -3 40 -24 40 -21 0 -24 5 -29 53 -9 90 4
267 19 267 11 0 14 20 14 80 l0 80 -55 0 -55 0 0 40 0 40 40 0 40 0 0 40 0 40
-40 0 -40 0 0 40 c0 29 4 40 15 40 11 0 15 11 15 40 0 30 -4 40 -16 40 -14 0
-15 10 -9 80 l7 80 -31 0 c-30 0 -31 2 -31 40 0 38 -2 40 -30 40 l-30 0 0 80
c0 47 -4 80 -10 80 -6 0 -10 33 -10 80 0 64 -3 80 -15 80 -12 0 -15 -13 -15
-56 0 -49 -2 -55 -15 -44 -11 9 -15 34 -15 96 0 83 0 84 -25 84 -22 0 -25 4
-25 40 0 29 4 40 15 40 11 0 15 11 15 40 0 29 -4 40 -15 40 -11 0 -15 11 -15
40 0 36 -2 40 -25 40 -22 0 -25 4 -25 40 0 29 -4 40 -15 40 -11 0 -15 -11 -15
-40 0 -29 -4 -40 -15 -40 -11 0 -15 11 -15 40 0 22 -4 40 -10 40 -5 0 -10 18
-10 40 0 36 3 40 25 40 16 0 25 6 25 15 0 11 -11 15 -40 15 l-40 0 0 -80 c0
-44 -4 -80 -8 -80 -5 0 -17 10 -28 21 -14 16 -15 23 -6 26 7 3 12 21 12 41 -1
28 -7 42 -25 55 -22 15 -25 16 -25 2 0 -8 -7 -15 -15 -15 -11 0 -15 11 -15 40
0 36 -2 40 -25 40 -16 0 -25 -6 -25 -16 0 -14 -2 -15 -17 -3 -15 13 -15 14 0
17 12 3 17 14 17 43 0 21 -4 39 -10 39 -5 0 -10 18 -10 40 l0 40 -55 0 -55 0
0 -39 c0 -22 -3 -46 -6 -55 -10 -26 -24 -18 -24 14 0 23 -4 30 -20 30 -11 0
-23 -8 -27 -17 -3 -10 -11 -24 -17 -31 -8 -11 -12 -11 -18 5 -6 12 -7 10 -3
-9 6 -29 -9 -39 -19 -13 -8 21 4 76 15 69 5 -3 9 3 9 13 0 19 81 186 93 191 4
2 7 8 7 13 0 8 46 114 180 414 10 22 39 90 65 150 26 61 58 134 71 163 13 29
35 83 48 120 13 37 45 126 71 197 55 152 112 323 149 450 15 50 40 133 56 185
100 330 139 516 200 955 48 351 55 737 20 1140 -29 337 -126 801 -228 1090
-172 492 -405 956 -705 1405 -82 123 -253 357 -283 388 -7 7 -30 34 -51 60
-167 208 -517 576 -663 697 -25 21 -47 40 -50 44 -3 3 -39 36 -80 71 -41 36
-77 67 -80 70 -3 3 -52 44 -110 91 -205 167 -574 436 -730 533 -52 32 -111 69
-130 81 -19 13 -73 47 -120 75 -47 29 -107 67 -135 85 -78 50 -283 179 -306
191 -34 19 -87 75 -104 110 -8 17 -15 54 -15 81 -1 121 160 324 275 346 17 3
73 -1 125 -9 227 -34 473 -4 631 77 169 85 298 216 504 509 21 30 53 75 69 98
17 24 56 79 86 123 76 109 446 621 487 674 5 6 26 37 49 70 22 33 60 89 85
125 24 36 49 70 54 76 6 6 49 69 97 140 198 290 348 494 537 724 74 91 138
167 141 170 3 3 32 36 65 74 33 39 71 82 85 96 14 15 49 53 79 86 29 32 240
248 470 479 416 420 663 679 747 784 36 45 159 176 319 339 237 243 423 425
808 793 48 46 240 235 427 419 186 184 416 412 512 506 306 302 386 399 467
569 45 93 47 99 71 180 11 39 25 84 30 100 19 63 41 215 46 330 19 351 -91
786 -283 1120 -113 197 -301 449 -423 565 -75 72 -175 164 -196 180 -10 8 -41
34 -69 56 -48 40 -199 144 -208 144 -3 0 -34 17 -68 38 -35 21 -84 48 -109 61
-25 12 -63 32 -85 43 -48 25 -135 58 -152 58 -7 0 -13 -4 -13 -10z m-1871
-2417 c0 -34 -1 -36 -11 -16 -6 12 -8 29 -5 37 11 27 17 18 16 -21z m-1599
-2023 c0 -5 -16 -10 -35 -10 -19 0 -35 5 -35 10 0 6 16 10 35 10 19 0 35 -4
35 -10z m45 0 c-3 -5 -10 -10 -16 -10 -5 0 -9 5 -9 10 0 6 7 10 16 10 8 0 12
-4 9 -10z m-3565 -5280 c0 -5 -2 -10 -4 -10 -3 0 -8 5 -11 10 -3 6 -1 10 4 10
6 0 11 -4 11 -10z m295 -95 c39 -14 75 -32 82 -41 6 -9 17 -13 23 -9 6 4 18 1
26 -6 8 -7 41 -21 72 -32 31 -10 59 -22 62 -26 9 -11 147 -80 152 -75 3 2 11
-2 18 -11 7 -8 20 -15 29 -15 23 0 129 -55 156 -80 12 -11 31 -20 43 -20 23 0
102 -38 102 -49 0 -4 17 -13 38 -20 20 -8 55 -26 77 -40 22 -15 58 -36 80 -46
22 -11 58 -32 80 -46 98 -63 132 -85 165 -102 19 -10 51 -29 70 -41 71 -45
155 -101 160 -106 3 -3 27 -17 53 -30 26 -14 57 -33 67 -42 11 -10 22 -18 25
-18 4 0 39 -22 78 -48 40 -27 128 -86 197 -132 69 -46 157 -109 195 -139 39
-31 80 -63 92 -71 86 -58 327 -269 497 -435 72 -71 390 -406 531 -560 65 -71
121 -132 125 -135 51 -44 403 -578 485 -735 17 -33 38 -71 47 -85 24 -38 104
-186 146 -270 20 -41 40 -76 45 -78 4 -2 7 -8 7 -12 0 -5 27 -71 61 -146 55
-124 109 -262 158 -399 30 -85 40 -116 66 -230 15 -60 31 -128 36 -150 9 -40
16 -75 43 -220 8 -44 19 -92 24 -106 6 -15 13 -53 17 -85 10 -91 34 -756 28
-781 -3 -13 -2 -31 2 -40 4 -10 7 -32 6 -48 -5 -82 -11 -156 -16 -210 -4 -33
-8 -73 -9 -90 -2 -16 -8 -43 -14 -58 -7 -16 -12 -44 -12 -63 0 -19 -4 -34 -8
-34 -4 0 -6 -15 -4 -34 2 -18 -1 -36 -6 -40 -6 -3 -8 -24 -5 -46 4 -26 2 -40
-6 -40 -6 0 -11 -19 -11 -47 0 -27 -5 -79 -11 -118 -6 -38 -12 -90 -15 -114
-2 -24 -8 -49 -14 -55 -5 -7 -12 -31 -16 -54 -4 -23 -10 -45 -15 -47 -4 -3
-11 -26 -15 -50 -3 -25 -10 -48 -15 -51 -5 -3 -9 -14 -9 -24 0 -10 -5 -31 -12
-47 -6 -15 -10 -32 -9 -37 1 -4 -6 -20 -16 -35 -9 -14 -17 -35 -18 -46 -1 -11
-2 -32 -3 -46 -1 -14 -11 -35 -22 -47 -11 -12 -20 -29 -20 -38 0 -17 -15 -53
-56 -140 -13 -28 -24 -57 -24 -65 0 -15 -43 -103 -60 -124 -5 -6 -8 -14 -5
-17 7 -7 -34 -98 -44 -98 -5 0 -11 -14 -15 -31 -3 -17 -9 -28 -14 -25 -4 2
-14 -15 -21 -40 -7 -24 -18 -44 -23 -44 -5 0 -6 10 -3 21 5 14 3 19 -3 15 -6
-3 -16 -22 -22 -41 -6 -19 -16 -35 -21 -35 -5 0 -14 -12 -19 -27 -17 -45 -25
-65 -58 -133 -17 -36 -38 -82 -47 -102 -10 -21 -22 -38 -27 -38 -6 0 -7 -7 -4
-16 3 -8 2 -13 -3 -9 -9 5 -77 -94 -73 -107 1 -5 -3 -8 -9 -8 -6 0 -9 -7 -5
-15 3 -9 0 -15 -10 -15 -8 0 -14 -6 -13 -12 3 -18 -21 -78 -31 -78 -4 0 -13
-12 -19 -27 -17 -41 -35 -71 -60 -97 -11 -12 -21 -27 -21 -32 0 -11 -65 -100
-121 -164 -21 -25 -48 -56 -59 -70 -11 -14 -38 -45 -59 -70 -87 -100 -108
-126 -124 -152 -32 -51 -161 -186 -290 -305 -31 -29 -57 -57 -57 -63 0 -5 -4
-10 -10 -10 -13 0 -150 -137 -150 -150 0 -5 -6 -10 -12 -10 -7 -1 -26 -19 -43
-40 -16 -21 -36 -39 -42 -40 -7 0 -13 -6 -13 -12 0 -7 -51 -53 -112 -103 -61
-49 -126 -105 -144 -122 -18 -18 -37 -33 -41 -33 -5 0 -22 -13 -38 -30 -15
-16 -32 -27 -36 -24 -5 3 -6 -3 -2 -13 3 -10 3 -15 -1 -11 -8 6 -16 1 -51 -29
-7 -7 -19 -13 -26 -13 -7 0 -10 -3 -6 -6 6 -6 -45 -54 -57 -54 -4 0 -28 -22
-54 -49 -26 -27 -59 -53 -74 -56 -36 -9 -36 7 -1 31 36 23 37 24 119 99 39 35
100 88 135 116 35 28 86 71 112 95 26 24 50 44 53 44 5 0 37 30 233 215 233
219 508 505 593 617 24 31 86 109 139 174 114 142 209 268 209 278 0 4 13 26
29 49 28 42 59 92 181 293 64 105 123 221 247 484 29 63 58 123 63 132 17 31
117 291 154 400 66 200 143 485 166 617 5 31 16 92 25 136 8 44 23 179 34 300
19 215 24 273 37 500 12 208 -20 625 -62 810 -106 463 -211 759 -413 1164
-175 351 -261 489 -512 826 -160 215 -184 246 -295 380 -167 202 -621 639
-899 866 -195 158 -809 609 -831 609 -2 0 -50 31 -106 68 -142 95 -316 202
-327 202 -5 0 -11 10 -13 22 -2 15 -13 24 -37 30 -18 5 -31 12 -28 15 8 7 -13
27 -35 36 -10 3 -18 13 -18 22 0 8 -4 16 -10 16 -5 1 -16 2 -22 3 -7 1 -12 8
-10 14 1 7 -11 24 -28 38 -16 14 -30 32 -30 40 0 8 -4 14 -10 14 -5 0 -10 -5
-10 -11 0 -5 -19 10 -43 35 -24 26 -51 46 -60 46 -9 0 -23 13 -32 30 -9 18
-20 27 -29 24 -9 -3 -20 4 -28 16 -14 23 -80 56 -133 66 -19 3 -45 16 -57 29
-13 12 -38 25 -57 29 -19 3 -40 15 -48 26 -8 11 -22 20 -32 20 -20 0 -117 45
-123 57 -1 4 -19 16 -38 26 -54 28 -84 53 -76 66 9 15 10 15 91 -14z m-3395
-160 c30 -8 66 -15 78 -15 42 0 172 -63 229 -110 124 -102 153 -130 189 -179
21 -30 44 -59 49 -65 21 -23 94 -174 113 -236 22 -66 28 -117 24 -202 -2 -37
-8 -54 -31 -77 -16 -16 -31 -35 -33 -42 -5 -15 -78 -4 -78 12 0 6 -4 8 -9 4
-5 -3 -17 8 -27 23 -9 16 -30 37 -45 46 -16 10 -29 21 -29 26 0 5 -35 45 -78
89 -59 60 -94 86 -145 110 -63 29 -78 32 -187 34 -85 1 -123 -2 -131 -10 -7
-7 -22 -13 -34 -13 -24 0 -98 -38 -176 -91 -31 -22 -62 -39 -68 -39 -6 0 -11
-4 -11 -10 0 -5 -24 -10 -52 -10 -87 1 -129 54 -147 184 -23 162 13 266 138
398 96 102 227 171 346 181 22 2 45 4 50 5 6 1 35 -5 65 -13z m-5776 -591 c22
-9 20 -24 -3 -24 -20 0 -81 -54 -81 -71 0 -5 -7 -9 -15 -9 -10 0 -15 -10 -15
-30 0 -16 -4 -30 -10 -30 -17 0 -11 -18 8 -23 12 -3 9 -6 -12 -12 -20 -6 -31
-4 -34 3 -2 7 -15 12 -28 12 -17 0 -24 -6 -24 -20 0 -16 -7 -20 -30 -20 -23 0
-30 -5 -30 -19 0 -14 6 -19 19 -16 15 3 18 0 13 -13 -10 -28 -29 -42 -56 -42
-16 0 -26 -6 -26 -15 0 -8 -5 -15 -11 -15 -21 0 -41 -31 -38 -63 4 -66 -1 -97
-16 -97 -8 0 -15 -6 -15 -12 0 -9 -4 -8 -10 2 -6 10 -10 11 -10 3 0 -7 -7 -13
-15 -13 -9 0 -20 -12 -25 -26 -13 -33 -13 -34 6 -34 9 0 14 -7 12 -17 -2 -12
-13 -18 -33 -18 -25 0 -36 -9 -72 -65 -24 -36 -48 -64 -53 -62 -6 1 -10 -4
-11 -10 -3 -45 -8 -60 -25 -73 -10 -8 -24 -15 -30 -15 -13 0 -24 -23 -24 -50
0 -20 -36 -46 -57 -42 -7 2 -13 -1 -13 -6 0 -5 -12 -14 -26 -20 -15 -8 -24
-19 -23 -30 4 -21 -18 -62 -32 -62 -6 0 -8 4 -4 9 3 6 -2 14 -12 19 -13 8 -21
4 -35 -13 -10 -13 -18 -29 -18 -37 0 -10 -3 -9 -10 2 -6 10 -10 11 -10 3 0 -7
-6 -13 -14 -13 -8 0 -16 -6 -19 -12 -2 -7 -2 -3 0 10 2 12 0 22 -5 22 -14 0
-52 -40 -52 -55 0 -8 -7 -15 -15 -15 -9 0 -19 -8 -22 -17 -4 -10 -15 -29 -25
-42 -10 -13 -18 -32 -18 -43 0 -11 -7 -26 -15 -34 -8 -9 -18 -27 -22 -42 -3
-15 -12 -33 -20 -40 -7 -7 -13 -21 -13 -31 0 -10 -9 -28 -20 -41 -11 -13 -20
-31 -20 -40 0 -10 -8 -28 -19 -41 -10 -13 -28 -44 -40 -69 -34 -71 -94 -178
-112 -199 -9 -10 -30 -40 -45 -67 -16 -27 -33 -56 -39 -65 -38 -65 -75 -134
-75 -141 0 -19 -50 -105 -76 -131 -27 -27 -46 -56 -60 -87 -11 -28 -23 -55
-43 -102 -12 -26 -21 -51 -21 -56 0 -5 -11 -34 -24 -63 -13 -30 -36 -92 -51
-139 -39 -122 -63 -170 -133 -257 -47 -60 -176 -141 -249 -157 -77 -17 -155 4
-168 44 -3 11 -12 26 -18 32 -27 29 -68 174 -68 242 -1 125 45 536 60 536 7 0
31 72 31 95 0 8 4 15 8 15 5 0 19 29 31 65 13 36 26 65 30 65 4 0 12 12 19 28
6 15 25 47 42 72 16 25 44 74 63 110 68 132 122 211 237 347 5 7 10 15 10 18
0 4 33 44 73 89 39 45 87 100 105 121 119 144 259 282 333 327 17 10 28 22 25
27 -3 5 1 12 10 15 11 4 15 14 11 32 -3 17 -1 22 6 15 7 -7 16 -2 29 15 11 13
26 24 34 24 8 0 14 8 14 18 0 9 10 22 22 27 12 6 26 19 32 29 6 11 19 29 29
40 9 11 17 28 17 38 0 11 14 24 39 35 22 10 42 25 44 35 3 9 20 23 38 31 19 8
40 21 48 30 7 10 20 17 28 17 7 0 19 5 26 10 45 38 91 70 101 70 6 0 22 14 36
30 17 20 38 33 63 37 25 4 37 11 37 22 1 28 43 49 106 52 47 3 63 9 77 27 13
15 25 20 41 16 15 -3 30 1 41 13 17 17 17 18 -6 25 -14 5 1 6 36 3 43 -3 55
-1 43 6 -27 15 -21 37 12 44 17 4 30 13 30 21 0 8 5 14 11 14 5 0 8 -4 5 -9
-3 -5 16 -11 44 -13 38 -2 52 1 62 15 17 23 33 21 46 -5 l11 -23 0 23 c1 19 6
22 41 22 22 0 40 -4 40 -10 0 -15 19 -12 36 5 17 17 25 18 48 9z m-274 -351
c0 -10 -32 -43 -42 -43 -4 0 -8 11 -8 25 0 20 5 25 25 25 14 0 25 -3 25 -7z
m9220 -49 c101 -10 254 -115 313 -216 88 -149 92 -158 112 -348 8 -74 17 -146
20 -160 3 -14 9 -51 12 -83 5 -45 2 -61 -11 -75 -9 -10 -14 -21 -11 -24 3 -2
-13 -11 -34 -18 -33 -11 -49 -11 -88 0 -26 7 -55 19 -63 26 -8 7 -35 22 -60
33 -25 11 -52 25 -60 30 -21 12 -60 28 -90 37 -14 4 -28 11 -31 17 -4 5 -26
10 -51 11 -47 2 -72 12 -63 26 3 4 -5 10 -18 14 -12 3 -41 23 -64 44 -24 23
-59 44 -82 50 -37 9 -45 7 -79 -16 -20 -14 -50 -31 -67 -38 -16 -8 -48 -27
-70 -43 -22 -16 -54 -31 -72 -35 -28 -5 -35 0 -67 41 -19 25 -43 71 -52 101
-14 52 -15 63 0 134 12 63 61 176 86 198 3 3 18 25 34 50 45 69 145 161 214
198 75 40 178 63 247 56 28 -3 70 -8 95 -10z m-7505 -354 c201 -48 337 -107
464 -204 85 -64 224 -209 236 -245 3 -12 11 -19 16 -16 5 4 9 0 9 -8 0 -7 19
-34 43 -60 41 -44 43 -45 84 -38 37 7 75 30 123 75 25 24 201 122 280 156 168
74 453 122 593 100 100 -15 229 -55 312 -98 39 -20 72 -39 75 -42 3 -3 19 -14
35 -25 47 -29 132 -113 198 -194 70 -87 227 -314 227 -329 0 -39 71 18 177
143 141 165 229 233 425 326 9 5 45 13 80 19 222 36 415 -24 581 -180 46 -44
97 -99 113 -122 16 -24 41 -59 55 -78 15 -19 41 -67 58 -106 28 -65 30 -79 26
-150 -6 -104 5 -355 16 -348 5 3 9 -9 9 -26 0 -17 6 -38 14 -45 7 -8 17 -30
20 -51 4 -20 16 -46 27 -57 10 -11 19 -27 19 -34 0 -7 5 -13 10 -13 6 0 10 -6
10 -14 0 -21 49 -116 60 -116 5 0 16 -22 24 -49 15 -51 8 -122 -13 -129 -15
-5 -14 -32 0 -32 7 0 -3 -13 -21 -29 -24 -20 -31 -34 -26 -46 9 -25 -19 -53
-60 -61 -31 -6 -40 -18 -35 -46 0 -5 -3 -8 -9 -8 -5 0 -20 -11 -34 -25 -16
-16 -36 -25 -57 -25 -21 0 -37 -8 -51 -25 -11 -14 -24 -25 -30 -25 -6 0 -1 9
12 20 13 11 21 22 18 25 -3 3 -11 -1 -18 -10 -7 -8 -19 -15 -26 -15 -8 0 -14
-5 -14 -11 0 -16 -26 -39 -44 -39 -9 0 -16 -5 -16 -11 0 -13 -61 -65 -72 -62
-4 2 -8 -2 -8 -8 0 -6 -13 -22 -30 -36 -16 -13 -30 -33 -30 -44 0 -10 -13 -25
-30 -34 -16 -9 -30 -19 -30 -23 0 -4 -16 -25 -35 -47 -19 -22 -35 -43 -35 -47
0 -5 -6 -8 -14 -8 -8 0 -17 -15 -20 -35 -4 -19 -12 -34 -19 -32 -6 1 -22 -18
-35 -43 -12 -25 -27 -46 -32 -48 -6 -2 -10 -10 -10 -18 0 -17 -17 -49 -47 -87
-13 -16 -23 -39 -23 -53 0 -15 -6 -24 -16 -24 -9 0 -14 -6 -11 -13 2 -7 -4
-28 -14 -47 -10 -19 -21 -42 -24 -50 -3 -8 -15 -33 -26 -55 -10 -22 -19 -48
-19 -58 0 -10 -6 -30 -14 -45 -7 -15 -16 -43 -20 -63 -4 -21 -14 -52 -23 -70
-9 -19 -18 -41 -19 -49 0 -8 -13 -62 -28 -120 -14 -58 -26 -116 -26 -130 0
-14 -7 -47 -15 -73 -13 -44 -30 -152 -40 -252 -12 -133 -19 -176 -26 -181 -5
-3 -9 -16 -9 -30 0 -15 -6 -24 -15 -24 -18 0 -45 -62 -38 -88 2 -10 -3 -26
-11 -35 -9 -8 -16 -20 -16 -25 0 -6 -7 -12 -15 -16 -8 -3 -15 -14 -15 -24 0
-10 -11 -25 -25 -32 -14 -7 -25 -21 -25 -31 0 -10 -9 -23 -20 -29 -11 -6 -19
-14 -17 -19 3 -12 -43 -51 -78 -65 -33 -13 -125 -10 -125 5 0 5 -18 9 -40 9
-36 0 -40 3 -40 25 0 23 -4 25 -40 25 -22 0 -40 -4 -40 -10 0 -5 -20 -10 -45
-10 -25 0 -45 5 -45 10 0 12 -147 14 -152 3 -1 -5 -20 -21 -40 -36 -21 -15
-38 -34 -38 -41 0 -14 -60 -31 -92 -27 -10 1 -18 -2 -18 -8 0 -5 8 -12 18 -14
11 -3 7 -5 -10 -6 -71 -3 -55 -16 48 -38 213 -48 474 -156 644 -268 118 -78
339 -289 412 -395 176 -252 311 -591 309 -775 -1 -44 -6 -81 -11 -83 -6 -2
-10 -22 -10 -45 0 -28 3 -37 9 -28 7 11 10 9 16 -8 7 -24 -2 -44 -16 -36 -15
10 -10 -5 6 -22 13 -12 15 -33 11 -105 -2 -49 -7 -92 -10 -95 -5 -6 -26 40
-26 57 0 11 -30 21 -41 14 -5 -3 -9 -21 -9 -40 0 -33 -13 -46 -23 -21 -3 6 -6
-3 -6 -20 -1 -22 -6 -33 -15 -33 -27 0 -55 -49 -61 -108 -9 -73 -33 -149 -50
-155 -7 -3 -15 -31 -19 -65 -4 -32 -13 -68 -21 -78 -8 -10 -15 -27 -15 -36 0
-10 -13 -24 -30 -33 -17 -9 -30 -24 -30 -34 0 -26 -22 -41 -48 -34 -18 4 -21
2 -16 -11 4 -11 -4 -26 -22 -43 -16 -14 -34 -40 -40 -57 -6 -17 -19 -33 -30
-35 -10 -2 -33 -19 -51 -39 -22 -24 -33 -30 -33 -20 0 16 -34 31 -45 19 -4 -3
-13 -21 -21 -39 -12 -29 -12 -36 3 -58 15 -24 15 -26 -11 -52 -14 -16 -26 -39
-26 -51 0 -19 -3 -21 -15 -11 -18 15 -35 5 -36 -23 -1 -17 -2 -18 -6 -4 -6 22
-16 22 -38 -3 -10 -11 -24 -20 -32 -20 -7 0 -13 -4 -13 -9 0 -5 -18 -11 -40
-15 -42 -7 -52 -19 -22 -31 14 -5 11 -9 -15 -20 -18 -8 -33 -21 -33 -30 0 -17
-25 -21 -35 -5 -9 15 -25 2 -25 -21 0 -26 -49 -79 -72 -79 -24 0 -32 -18 -11
-23 14 -4 13 -5 -4 -6 -16 -1 -23 -7 -23 -20 0 -12 -12 -25 -30 -33 -17 -7
-33 -20 -35 -30 -3 -9 -12 -19 -20 -22 -8 -3 -15 -13 -15 -22 0 -19 -39 -53
-62 -54 -9 0 -21 -12 -26 -27 -7 -18 -11 -22 -11 -10 -1 26 -14 21 -49 -18
-24 -28 -36 -34 -55 -30 -18 5 -26 1 -35 -19 -6 -14 -18 -26 -25 -26 -8 0 -27
-12 -42 -26 -20 -19 -30 -22 -35 -13 -13 19 -38 3 -54 -35 -10 -23 -28 -42
-54 -55 -41 -21 -82 -64 -82 -87 0 -24 -77 -94 -104 -94 -19 0 -29 -7 -36 -25
-6 -15 -17 -25 -29 -25 -11 0 -23 -4 -26 -10 -3 -5 -24 -10 -45 -10 -25 0 -42
-6 -48 -16 -5 -8 -15 -16 -24 -17 -8 -2 -30 -15 -47 -30 -18 -15 -39 -27 -47
-27 -7 0 -23 -8 -34 -17 -11 -10 -30 -20 -43 -23 -28 -7 -34 -36 -11 -61 16
-17 16 -22 4 -30 -8 -5 -23 -7 -33 -5 -21 5 -38 -25 -18 -32 11 -4 -21 -25
-76 -51 -11 -5 -24 -15 -28 -20 -3 -6 -26 -11 -49 -11 -27 0 -48 -6 -56 -15
-11 -13 -8 -15 20 -15 28 0 31 -2 20 -15 -15 -19 -140 -22 -140 -3 0 6 -7 4
-18 -5 -10 -10 -23 -17 -29 -17 -19 0 -63 -46 -63 -67 0 -25 -18 -33 -70 -33
-21 0 -45 -7 -54 -15 -8 -8 -23 -15 -34 -15 -11 0 -33 -13 -48 -29 -16 -17
-42 -31 -59 -33 -27 -3 -30 0 -33 30 -4 37 -14 39 -67 12 -22 -11 -49 -20 -61
-20 -12 0 -25 -7 -28 -15 -5 -14 -8 -14 -31 1 -17 11 -25 12 -25 4 0 -7 -11
-10 -27 -8 -19 2 -28 8 -27 21 1 9 2 26 3 37 1 22 21 28 21 6 0 -22 44 -27 90
-11 23 8 61 15 84 15 23 0 51 7 64 15 12 9 30 15 39 13 14 -2 17 3 15 21 -3
20 0 23 17 18 21 -5 101 29 101 44 0 5 6 9 14 9 8 0 16 10 18 22 2 14 12 24
28 28 47 12 -8 20 -100 15 -74 -4 -91 -1 -138 20 -42 19 -58 22 -79 14 -31
-11 -66 -2 -59 16 9 24 -38 3 -70 -31 -18 -19 -39 -34 -48 -34 -10 0 -13 -6
-9 -16 4 -10 -1 -17 -16 -21 -11 -3 -21 -10 -21 -15 0 -5 -11 -1 -24 9 -24 18
-24 18 -6 49 22 38 11 54 -36 54 -36 0 -47 -10 -48 -49 -1 -30 -45 -59 -58
-38 -4 7 -5 20 -2 30 5 15 1 17 -22 15 -20 -2 -29 2 -32 15 -2 10 3 17 12 17
9 0 16 7 16 15 0 22 -79 95 -102 95 -10 0 -18 3 -18 8 0 4 -14 13 -31 21 -16
7 -42 31 -56 52 -21 32 -25 50 -26 111 0 45 -5 79 -13 88 -14 17 -13 50 4 93
8 17 8 36 2 51 -5 13 -6 26 -3 30 3 3 3 12 0 20 -7 19 -37 10 -37 -10 0 -8 -5
-14 -10 -14 -10 0 -9 16 12 140 6 36 12 92 14 125 2 33 8 83 14 110 6 28 13
83 16 124 4 51 12 82 25 100 12 16 22 50 25 86 3 33 12 67 20 76 12 14 13 30
5 95 -9 71 -8 82 10 111 11 17 19 35 18 40 -4 14 20 63 31 63 5 0 7 13 4 30
-5 22 -2 31 10 36 9 3 16 14 16 24 0 10 11 41 25 68 14 28 25 59 25 71 0 12 4
21 9 21 8 0 31 52 31 71 0 5 -13 9 -28 9 -21 0 -29 5 -29 18 0 9 3 19 7 22 3
3 13 15 21 27 8 11 71 81 141 155 132 138 203 193 214 163 4 -10 -7 -28 -30
-51 -20 -19 -36 -40 -36 -47 0 -9 3 -8 8 1 5 7 16 10 25 6 10 -3 33 -3 53 1
32 6 35 9 30 31 -5 17 -2 26 9 30 8 4 15 15 15 26 0 37 40 61 135 79 76 15
338 -25 382 -57 37 -28 49 -29 70 -8 13 12 13 20 4 41 -9 20 -9 29 1 41 11 13
10 15 -4 9 -9 -3 -22 1 -28 9 -7 8 -18 14 -24 14 -6 0 -19 9 -29 20 -9 11 -13
20 -8 20 5 0 3 13 -5 30 -12 23 -21 29 -41 28 -15 -2 -28 2 -30 9 -2 6 -12 9
-21 6 -20 -5 -57 31 -65 62 -4 18 -5 18 -6 -3 -3 -54 -61 -29 -61 26 0 21 -3
23 -25 18 -14 -4 -25 -5 -25 -4 0 2 -11 33 -24 70 -15 40 -29 111 -36 178 -24
246 34 500 153 663 37 52 153 153 252 220 49 34 140 100 153 112 2 2 -3 18
-12 37 -27 57 -35 128 -30 283 6 204 39 477 74 633 32 138 65 260 80 297 4 11
45 133 90 270 46 138 107 309 137 380 30 72 60 148 67 170 58 178 58 201 -7
229 -50 21 -137 110 -137 140 0 12 -5 27 -11 33 -12 12 -3 53 12 53 5 0 9 6 9
14 0 33 29 46 91 39 58 -6 59 -5 59 19 0 19 -8 27 -37 38 -21 8 -47 15 -58 17
-19 3 -37 20 -50 47 -3 8 -7 7 -11 -2 -5 -10 -9 -10 -20 -1 -17 14 -45 5 -39
-13 3 -7 -7 -18 -23 -26 -16 -6 -38 -21 -50 -32 -12 -11 -26 -20 -31 -20 -5 0
-13 -9 -16 -20 -3 -11 -15 -20 -25 -20 -10 0 -34 -18 -53 -40 -23 -28 -42 -40
-60 -40 -17 0 -28 -7 -32 -20 -7 -21 -30 -27 -40 -10 -9 15 -35 12 -35 -4 0
-8 -13 -17 -30 -21 -16 -4 -30 -12 -31 -18 0 -7 -18 -27 -40 -46 -33 -28 -39
-31 -40 -15 0 14 -4 11 -14 -10 -12 -27 -17 -30 -71 -33 -33 -2 -72 1 -88 5
-27 7 -31 14 -42 71 -7 35 -20 71 -29 81 -17 19 -20 60 -5 60 18 0 11 29 -10
40 -11 6 -20 17 -20 25 0 8 -9 15 -20 15 -11 0 -20 6 -20 13 0 6 -15 24 -34
39 -30 24 -38 26 -70 17 -42 -12 -45 -29 -20 -115 20 -70 16 -110 -11 -107
-14 1 -25 -7 -34 -28 -8 -19 -18 -28 -27 -25 -16 6 -34 -23 -34 -53 0 -12 -6
-21 -14 -21 -20 0 -27 -26 -14 -58 14 -36 18 -86 6 -93 -5 -3 -10 -15 -11 -27
-1 -21 -6 -22 -90 -21 -59 0 -93 -4 -101 -12 -8 -9 -7 -10 7 -6 23 9 13 -9
-15 -24 -16 -8 -19 -8 -13 1 6 9 -6 11 -46 6 -88 -10 -108 -8 -131 14 l-22 20
26 0 c24 0 26 3 24 40 -1 22 1 40 6 40 4 0 8 27 8 60 0 45 -4 62 -15 66 -11 5
-15 21 -15 60 0 53 0 54 30 54 28 0 30 2 30 40 0 22 5 40 10 40 6 0 10 9 10
21 0 15 -5 19 -19 14 -20 -6 -61 35 -61 61 0 10 -13 14 -40 14 -34 0 -40 -3
-40 -22 0 -12 5 -36 12 -54 6 -17 8 -40 3 -50 -7 -18 -7 -18 -16 1 -6 14 -8 4
-5 -34 3 -48 1 -57 -23 -77 -22 -20 -24 -25 -11 -33 8 -6 11 -14 6 -18 -5 -4
-11 -2 -13 5 -6 17 -33 15 -33 -3 0 -8 -4 -15 -10 -15 -5 0 -14 -17 -19 -37
-6 -21 -20 -45 -31 -53 -11 -8 -22 -26 -25 -38 -9 -47 -17 -63 -30 -58 -8 3
-15 -6 -18 -22 -6 -30 -70 -102 -89 -102 -14 0 -60 -62 -57 -76 1 -5 1 -17 0
-26 -1 -22 -37 -24 -45 -2 -3 8 -10 13 -15 10 -4 -3 -16 3 -26 14 -14 16 -31
20 -81 20 -35 0 -66 -5 -70 -11 -3 -6 -25 -19 -49 -29 -24 -10 -46 -23 -49
-29 -4 -6 -25 -11 -47 -11 -39 0 -40 0 -25 -22 9 -12 16 -30 16 -40 0 -14 8
-18 39 -18 22 0 43 -5 46 -11 4 -6 13 -8 20 -5 8 3 17 -4 20 -15 4 -10 18 -26
33 -34 15 -8 21 -14 15 -15 -8 0 -13 -15 -13 -39 0 -30 -6 -44 -25 -59 -14
-11 -25 -29 -25 -41 0 -14 -6 -21 -20 -21 -11 0 -20 -6 -20 -13 0 -18 -24 -67
-32 -67 -5 0 -8 -8 -8 -17 -1 -22 -70 -69 -79 -54 -4 6 -12 7 -21 1 -8 -6 -27
-10 -43 -10 -17 0 -37 -11 -55 -30 -15 -16 -36 -31 -47 -33 -11 -1 -25 -6 -32
-10 -6 -4 -23 -8 -37 -9 -14 -1 -26 -6 -26 -11 0 -5 -13 -7 -30 -5 -23 3 -30
1 -30 -11 0 -9 -9 -22 -20 -29 -11 -7 -20 -19 -20 -27 0 -18 -39 -45 -65 -45
-11 0 -33 7 -49 15 -15 8 -34 15 -40 15 -7 0 -22 9 -34 20 -12 11 -26 20 -33
20 -22 0 -103 97 -224 270 -146 208 -180 269 -235 415 -108 289 -125 385 -124
725 1 335 8 393 79 736 24 111 72 234 142 358 19 33 37 69 40 79 3 9 9 17 14
17 5 0 9 5 9 10 0 16 167 262 244 360 62 79 252 280 265 280 3 0 22 15 41 33
47 45 138 105 235 157 44 23 98 53 120 65 50 28 311 119 430 150 135 35 270
34 430 -5z m-5450 -466 c83 -19 202 -48 265 -65 124 -33 634 -159 740 -184 36
-8 103 -23 150 -34 47 -10 139 -31 205 -46 222 -50 303 -79 338 -118 22 -26
22 -40 -2 -91 -11 -23 -31 -70 -45 -106 -14 -36 -42 -96 -61 -134 -19 -37 -35
-76 -35 -85 0 -9 -11 -32 -24 -51 -13 -19 -27 -46 -31 -60 -4 -14 -13 -32 -20
-40 -8 -8 -15 -22 -17 -30 -4 -20 -59 -80 -68 -75 -4 3 -13 -2 -20 -10 -21
-25 -156 -13 -221 21 -26 13 -150 49 -224 65 -99 21 -170 38 -194 48 -14 6
-57 18 -96 27 -126 29 -179 41 -225 53 -25 7 -61 17 -80 22 -19 5 -82 22 -140
39 -58 17 -123 35 -145 41 -22 6 -47 14 -55 19 -9 4 -35 11 -60 15 -24 4 -72
20 -107 36 -36 16 -94 34 -130 39 -36 6 -74 15 -84 20 -10 6 -31 10 -47 10
-47 0 -114 71 -128 135 -15 67 -17 228 -4 290 6 28 14 63 17 78 3 16 12 31 19
34 8 3 14 13 14 22 0 23 75 100 119 123 40 21 144 36 206 30 22 -3 108 -20
190 -38z m11795 -789 c40 -14 112 -63 137 -95 35 -42 68 -111 79 -165 28 -127
10 -422 -33 -540 -14 -38 -28 -92 -32 -120 -4 -27 -15 -67 -24 -89 -9 -21 -17
-48 -17 -59 0 -11 -12 -45 -26 -76 -15 -31 -33 -83 -41 -116 -8 -33 -22 -78
-32 -100 -11 -22 -24 -59 -30 -82 -8 -28 -22 -49 -42 -64 -26 -18 -30 -27 -25
-50 4 -21 -4 -48 -26 -94 -17 -36 -34 -65 -39 -65 -19 0 -99 -150 -119 -225
-14 -52 -32 -91 -49 -110 -15 -16 -40 -51 -54 -76 -15 -26 -52 -73 -83 -105
-31 -32 -63 -72 -71 -89 -9 -16 -31 -50 -50 -74 -18 -24 -38 -61 -43 -82 -6
-22 -21 -46 -35 -55 -14 -9 -40 -42 -59 -73 -19 -31 -78 -99 -131 -151 -55
-55 -104 -112 -114 -136 -12 -26 -36 -53 -62 -72 -24 -17 -112 -101 -196 -189
-83 -87 -164 -166 -180 -175 -15 -9 -46 -34 -68 -56 -22 -21 -71 -63 -110 -92
-38 -29 -88 -70 -111 -89 -23 -20 -63 -47 -89 -60 -27 -13 -64 -39 -84 -56
-20 -18 -72 -50 -116 -72 -181 -91 -293 -150 -321 -170 -16 -11 -92 -51 -169
-88 -149 -72 -198 -84 -340 -85 -76 0 -171 20 -209 45 -13 9 -31 13 -40 9 -9
-3 -16 -1 -16 5 0 6 4 11 9 11 5 0 7 9 4 19 -3 10 0 27 5 37 15 29 108 142
167 206 30 31 59 67 66 80 7 13 20 29 31 36 10 7 18 17 18 23 0 9 35 51 83
101 9 10 17 21 17 25 0 4 15 21 33 38 17 18 50 53 72 80 22 26 54 62 71 79 16
17 39 44 49 61 22 36 33 49 65 84 14 15 52 63 84 107 33 43 63 81 67 84 10 7
69 87 108 145 19 28 48 64 65 80 17 17 42 46 56 64 14 19 32 42 40 51 33 39
76 94 84 109 5 9 12 18 16 21 3 3 16 24 28 47 l22 43 -23 21 c-12 11 -42 30
-67 40 -98 43 -193 95 -204 112 -6 10 -29 22 -51 28 -22 6 -58 24 -79 40 -22
16 -48 29 -57 29 -10 0 -25 9 -33 21 -8 12 -19 18 -24 15 -6 -4 -8 2 -5 15 7
24 -15 69 -34 69 -9 0 -13 13 -13 40 0 29 -4 40 -15 40 -11 0 -15 11 -15 40 0
39 1 40 35 40 21 0 35 5 35 13 0 9 32 13 118 15 120 3 241 -7 392 -35 155 -28
198 -30 235 -13 38 17 105 99 105 127 0 10 4 25 10 33 14 23 -18 69 -46 64
-12 -2 -30 3 -39 13 -15 14 -27 18 -69 22 -13 1 -2 169 12 183 7 7 12 24 12
39 0 15 4 31 10 34 5 3 21 30 35 58 40 84 121 201 252 365 127 158 146 183
167 217 10 16 21 32 25 35 3 3 19 23 36 45 60 82 231 265 326 350 156 140 365
255 527 290 80 18 201 18 252 0z m1095 -290 c11 -7 35 -16 53 -20 17 -4 32
-10 32 -14 0 -5 18 -8 39 -8 24 0 49 -8 65 -21 14 -11 43 -23 63 -27 21 -4 55
-15 77 -26 22 -10 45 -19 51 -19 6 0 28 -9 50 -20 21 -11 75 -28 119 -37 45
-9 84 -21 87 -26 3 -4 33 -10 65 -11 90 -4 291 -45 351 -72 17 -8 38 -14 47
-14 9 0 16 -4 16 -9 0 -8 72 -42 150 -71 19 -7 44 -22 56 -32 11 -10 30 -18
41 -18 11 0 26 -7 33 -14 6 -8 35 -23 63 -32 28 -9 65 -30 82 -45 16 -16 36
-29 43 -29 7 0 30 -18 52 -40 22 -22 46 -40 54 -40 9 0 25 -14 38 -30 15 -21
24 -26 29 -18 6 9 14 4 29 -15 11 -14 31 -32 44 -39 13 -7 50 -33 82 -57 83
-64 95 -73 119 -98 12 -13 26 -23 30 -23 11 0 235 -225 235 -236 0 -6 11 -20
25 -32 14 -12 25 -28 25 -36 0 -8 11 -23 25 -34 14 -11 25 -23 25 -27 0 -10
27 -35 38 -35 5 0 13 -11 16 -25 4 -14 11 -25 16 -25 6 0 10 -7 10 -15 0 -8 6
-15 14 -15 8 0 17 -15 21 -37 5 -32 44 -104 66 -123 3 -3 16 -26 28 -52 13
-27 26 -48 30 -48 12 0 40 -68 50 -120 5 -25 19 -70 31 -100 43 -108 49 -125
50 -147 0 -12 6 -37 14 -55 8 -18 23 -55 35 -83 15 -36 20 -68 19 -111 -1 -40
3 -68 11 -78 20 -24 10 -472 -13 -576 -9 -41 -21 -83 -26 -92 -6 -10 -10 -34
-10 -53 0 -19 -4 -35 -10 -35 -5 0 -12 -11 -16 -25 -3 -14 -10 -25 -14 -25 -4
0 -11 -11 -14 -25 -4 -14 -11 -25 -16 -25 -6 0 -10 -13 -10 -29 0 -16 -4 -31
-8 -33 -5 -1 -15 -16 -23 -33 -8 -16 -29 -37 -48 -46 -19 -9 -40 -27 -47 -41
-7 -14 -34 -35 -60 -47 -39 -19 -61 -22 -151 -20 -135 3 -134 1 -103 171 26
147 32 358 11 431 -14 50 -31 63 -31 23 0 -13 -7 -29 -15 -36 -20 -17 -71
-154 -89 -241 -9 -41 -30 -102 -47 -136 -29 -60 -32 -63 -67 -64 -46 -2 -75
-5 -133 -14 -36 -6 -64 -2 -135 21 -49 15 -93 31 -98 36 -6 4 -25 8 -42 8 -18
0 -35 4 -38 9 -3 5 -41 16 -83 25 -88 18 -146 36 -153 46 -3 4 -32 12 -65 18
-33 5 -78 15 -100 22 -76 21 -120 32 -144 35 -14 2 -34 8 -45 13 -12 6 -43 18
-71 28 -27 9 -52 20 -55 24 -3 4 -26 12 -52 18 -25 7 -59 17 -75 23 -33 14
-49 19 -85 26 -16 3 -28 9 -28 13 0 4 -27 18 -60 30 -33 13 -85 37 -115 55
-30 18 -75 41 -100 50 -25 10 -45 24 -45 31 0 8 -8 14 -19 14 -10 0 -24 7 -31
15 -7 8 -19 15 -27 15 -8 0 -24 10 -37 23 -23 23 -87 56 -121 63 -11 2 -32 13
-47 24 -15 11 -31 20 -35 20 -14 1 -59 45 -67 65 -5 13 -9 16 -14 8 -4 -7 -12
-9 -17 -5 -20 14 -65 81 -65 96 0 9 -4 16 -10 16 -5 0 -10 9 -10 20 0 12 7 20
16 20 13 0 15 7 10 38 -7 46 18 81 61 84 15 1 33 4 38 8 33 20 174 -1 665 -98
113 -22 295 -57 405 -77 110 -20 252 -48 315 -62 63 -13 147 -31 185 -39 39
-8 84 -19 100 -24 46 -14 257 -59 251 -53 -9 10 -210 79 -356 124 -41 12 -79
26 -85 31 -5 4 -23 8 -40 9 -29 1 -29 1 -5 9 24 8 24 8 3 9 -13 1 -23 7 -23
15 0 7 -9 16 -20 19 -11 3 -24 16 -29 29 -5 12 -26 39 -47 59 -22 20 -61 61
-89 92 -27 31 -55 57 -62 57 -6 0 -20 11 -31 25 -11 14 -25 25 -31 25 -6 0
-11 4 -11 8 0 5 -19 22 -42 40 -114 84 -159 121 -207 167 -29 28 -65 56 -82
63 -16 7 -32 19 -35 27 -5 11 -118 95 -128 95 -2 0 -25 21 -52 46 -27 25 -68
59 -91 75 -23 16 -45 38 -48 49 -4 12 -18 23 -34 26 -15 3 -42 19 -59 35 -16
15 -50 38 -74 51 -23 12 -56 36 -71 52 -23 24 -30 27 -38 15 -8 -11 -15 -8
-39 19 -17 18 -40 32 -53 32 -26 0 -77 21 -77 32 0 4 -8 15 -19 25 -10 10 -24
36 -31 58 -6 22 -29 76 -50 120 -71 148 -112 245 -105 245 2 0 -11 32 -30 72
-19 40 -35 80 -35 88 0 9 -4 20 -8 26 -5 5 -17 31 -26 57 -16 42 -52 108 -124
225 -12 20 -31 54 -42 74 -11 20 -25 40 -30 43 -13 8 -32 50 -37 85 -2 13 -8
27 -12 30 -14 9 -23 68 -12 75 6 3 8 17 5 32 -5 18 -3 24 4 19 6 -4 31 3 54
14 41 21 52 21 276 14 144 -4 232 -3 232 3 0 12 59 4 85 -12z m-3029 -492
c-10 -10 -19 5 -10 18 6 11 8 11 12 0 2 -7 1 -15 -2 -18z m-309 -279 c-3 -3
-12 -4 -19 -1 -8 3 -5 6 6 6 11 1 17 -2 13 -5z m-3469 -406 c-5 -32 -28 -36
-26 -4 1 14 8 26 16 26 8 0 12 -9 10 -22z m-1258 -458 c0 -5 -4 -10 -10 -10
-5 0 -10 5 -10 10 0 6 5 10 10 10 6 0 10 -4 10 -10z m-5009 -170 c242 -23 499
-100 829 -247 111 -50 186 -93 300 -173 85 -60 220 -193 251 -248 49 -84 69
-141 69 -192 0 -65 3 -89 12 -84 4 3 8 0 8 -5 0 -6 -4 -11 -9 -11 -5 0 -4 -15
2 -35 6 -19 14 -35 19 -35 41 0 155 37 196 64 102 66 417 127 652 127 353 0
638 -85 932 -277 224 -146 455 -443 559 -720 53 -140 69 -274 56 -459 -3 -44
-2 -89 3 -100 8 -21 40 40 151 290 149 337 237 484 359 598 93 88 185 139 324
179 148 43 246 58 379 58 165 0 262 -25 386 -101 31 -20 78 -121 96 -207 9
-44 14 -108 12 -162 -2 -49 -1 -112 3 -139 3 -28 3 -48 -1 -45 -4 2 -11 -15
-14 -38 -3 -24 -8 -52 -10 -63 -2 -11 -4 -26 -4 -34 -1 -8 -4 -11 -8 -8 -12
12 -33 -15 -33 -43 0 -14 -3 -30 -7 -34 -4 -4 -8 -17 -8 -29 0 -15 -7 -23 -22
-25 -14 -2 -23 -10 -23 -21 0 -9 -9 -34 -20 -55 -10 -21 -22 -59 -25 -85 -3
-25 -15 -89 -26 -141 -10 -52 -26 -149 -33 -215 -34 -281 -40 -324 -47 -319
-4 2 -11 -22 -15 -53 -6 -57 -53 -219 -79 -278 -13 -29 -23 -81 -49 -270 -16
-115 -57 -285 -68 -285 -4 0 -8 -11 -8 -24 0 -26 -19 -85 -32 -101 -5 -5 -18
-25 -28 -42 -22 -37 -40 -43 -40 -13 0 11 -4 20 -8 20 -5 0 -14 11 -20 25 -16
35 -29 31 -37 -12 -4 -24 -9 -32 -15 -24 -4 8 -12 11 -18 7 -6 -3 -15 9 -22
28 -7 22 -16 33 -24 30 -7 -3 -19 3 -27 12 -12 15 -12 16 9 10 16 -5 22 -3 22
8 0 8 -4 18 -10 21 -5 3 -10 17 -10 31 0 32 -12 30 -50 -8 -31 -30 -33 -31
-43 -12 -6 10 -11 41 -11 69 -1 33 -5 50 -14 50 -7 0 -20 12 -30 28 -10 15
-21 25 -24 21 -4 -3 -9 4 -13 15 -3 12 -11 21 -16 21 -5 0 -9 7 -9 16 0 8 -5
12 -10 9 -5 -3 -10 2 -11 12 0 13 -2 14 -6 4 -7 -17 -31 -48 -60 -76 -13 -12
-23 -27 -23 -34 0 -6 -4 -11 -10 -11 -5 0 -19 -18 -30 -40 -11 -22 -25 -40
-30 -40 -5 0 -12 -9 -15 -20 -4 -11 -17 -32 -29 -48 -13 -15 -31 -48 -39 -73
-20 -59 -63 -122 -121 -179 -25 -24 -46 -52 -46 -62 0 -10 -6 -18 -12 -18 -12
0 -48 -73 -48 -97 0 -33 -47 -112 -95 -159 -30 -30 -55 -62 -56 -72 -5 -143
-6 -151 -35 -189 -15 -21 -32 -39 -36 -41 -4 -2 -8 -12 -8 -22 0 -10 -9 -25
-20 -33 -17 -12 -40 -55 -76 -142 -4 -11 -8 -47 -9 -80 0 -39 -8 -80 -24 -118
-19 -46 -21 -60 -11 -72 9 -10 9 -15 1 -15 -6 0 -11 -7 -11 -15 0 -8 -9 -20
-20 -27 -11 -7 -20 -21 -20 -30 0 -10 -9 -35 -20 -55 -11 -21 -20 -46 -20 -56
0 -14 -5 -17 -21 -12 -13 5 -25 1 -32 -9 -7 -9 -30 -19 -52 -23 -22 -3 -42 -9
-45 -13 -3 -4 -25 -11 -50 -16 -25 -5 -45 -14 -45 -21 0 -21 -15 -27 -58 -25
-60 4 -75 10 -83 35 -4 11 -13 27 -20 35 -8 7 -14 22 -14 33 0 10 -4 19 -10
19 -5 0 -10 5 -10 12 0 6 -9 31 -21 55 -17 36 -22 68 -26 192 -5 149 1 205 43
446 8 44 21 121 29 170 8 50 38 205 66 345 72 354 78 388 85 448 l7 52 -39 1
c-58 2 -72 5 -149 33 -38 14 -78 26 -87 26 -16 0 -78 29 -88 41 -3 3 -14 11
-25 17 -18 10 -17 11 10 12 28 0 31 3 33 37 2 20 5 40 7 44 3 4 -7 17 -22 28
l-28 22 23 16 c21 15 22 17 6 34 -10 11 -23 19 -31 19 -22 0 -14 31 16 58 31
30 84 40 106 22 8 -7 21 -10 28 -7 13 5 197 -14 305 -32 35 -5 55 -5 61 3 5 6
25 74 45 151 36 142 64 229 176 545 34 96 64 185 67 198 3 12 9 25 14 28 5 3
9 15 9 27 -1 17 -6 13 -20 -18 l-20 -40 -127 -2 c-96 -1 -132 2 -147 13 -26
18 -46 18 -46 -1 0 -8 -2 -15 -4 -15 -2 0 -13 -3 -23 -6 -15 -5 -15 -4 -3 5
12 8 6 11 -25 10 -27 0 -34 -3 -22 -8 17 -6 17 -8 3 -20 -8 -7 -19 -10 -24 -7
-5 3 -7 -6 -4 -19 4 -22 1 -25 -27 -25 -17 0 -31 -4 -31 -9 0 -4 -22 -6 -50
-3 -30 3 -50 1 -50 -6 0 -5 -11 -13 -25 -16 -47 -12 -283 -16 -310 -6 -20 8
-39 6 -71 -5 -62 -21 -73 -19 -80 13 -10 40 -37 70 -89 97 -59 32 -100 32
-119 3 -8 -13 -27 -66 -41 -118 -15 -52 -29 -102 -32 -110 -4 -8 -12 -33 -19
-55 -6 -22 -17 -54 -25 -71 -11 -28 -10 -34 4 -49 9 -9 17 -22 17 -28 0 -8 -3
-8 -9 1 -6 10 -10 10 -20 -2 -14 -17 -8 -63 14 -107 15 -28 10 -41 -21 -57
-24 -13 -84 -121 -77 -140 5 -14 -24 -52 -39 -52 -4 0 -8 8 -8 18 0 13 -2 14
-9 3 -6 -9 -11 -10 -15 -2 -11 17 3 52 17 44 7 -3 3 3 -7 15 -11 12 -26 22
-34 22 -9 0 -12 6 -7 18 4 9 9 28 11 42 2 14 7 35 9 48 3 12 8 52 11 89 3 36
10 75 16 86 5 11 21 51 34 91 l24 71 -35 30 c-26 22 -37 41 -42 70 -3 22 -14
59 -25 83 -10 24 -18 51 -18 61 0 18 -49 41 -88 41 -11 0 -24 5 -27 10 -13 21
-73 38 -118 33 -45 -5 -47 -6 -63 -57 -10 -28 -17 -73 -17 -99 1 -43 -2 -49
-28 -62 -37 -20 -38 -19 -49 11 -6 14 -14 22 -20 19 -15 -10 -12 -52 5 -59 8
-3 15 -16 15 -30 0 -14 -7 -31 -15 -40 -8 -8 -15 -19 -15 -25 0 -6 -6 -11 -14
-11 -7 0 -25 -9 -40 -21 -14 -11 -26 -16 -26 -11 0 21 -40 -1 -62 -34 -17 -25
-28 -33 -42 -30 -11 3 -26 0 -34 -7 -21 -17 -147 -45 -176 -40 -18 4 -27 -1
-37 -19 -16 -29 -48 -53 -74 -53 -16 0 -22 -10 -31 -50 -8 -40 -14 -49 -29
-47 -30 6 -47 30 -47 67 0 30 -3 35 -24 35 -31 0 -58 42 -59 94 -1 23 -5 42
-11 43 -5 2 -9 -3 -10 -10 -3 -32 -5 -36 -19 -31 -8 4 -22 1 -30 -6 -8 -6 -19
-9 -25 -5 -5 3 -13 -1 -16 -9 -3 -8 -14 -18 -23 -21 -10 -3 -23 -17 -29 -30
-8 -17 -20 -25 -36 -25 -29 0 -43 -17 -27 -33 8 -8 17 -7 33 1 45 22 121 43
127 34 11 -15 38 -21 50 -9 14 14 26 3 15 -15 -10 -16 -13 -48 -3 -43 13 8 30
-22 28 -51 0 -16 2 -39 6 -50 4 -14 1 -26 -9 -35 -76 -66 -71 -55 -69 -172 2
-98 0 -109 -19 -127 l-21 -20 25 -23 c14 -13 30 -32 35 -42 10 -18 12 -18 37
-2 14 9 36 17 48 17 19 0 20 2 8 10 -9 6 -10 10 -3 10 6 0 18 -7 26 -15 16
-16 92 -45 118 -45 9 0 30 -7 45 -15 33 -17 120 -20 129 -4 4 6 22 8 45 4 36
-6 62 6 40 20 -5 3 -10 10 -10 16 0 14 21 11 41 -6 18 -17 18 -17 57 30 23 27
122 12 122 -19 0 -19 -63 -82 -68 -67 -6 17 -32 13 -32 -6 0 -22 29 -53 49
-53 14 0 14 -2 1 -10 -11 -7 -11 -10 -2 -10 16 0 59 45 67 71 15 46 61 -2 50
-52 -4 -16 -13 -29 -21 -29 -9 0 -24 -5 -35 -11 -20 -10 -20 -11 -3 -30 15
-16 15 -19 2 -19 -9 0 -21 -13 -27 -30 -5 -16 -17 -30 -25 -30 -9 0 -16 -8
-16 -17 0 -29 -23 -83 -36 -83 -6 0 -22 -8 -34 -18 -19 -15 -23 -29 -24 -78
-1 -37 -7 -68 -17 -82 -9 -13 -15 -32 -12 -43 3 -10 0 -19 -6 -19 -6 0 -11
-17 -11 -40 0 -22 -4 -40 -10 -40 -5 0 -10 -20 -10 -45 0 -31 -5 -47 -15 -51
-10 -4 -15 -20 -15 -51 0 -52 -16 -87 -36 -79 -8 3 -14 1 -14 -3 0 -5 5 -11
12 -13 8 -3 7 -11 -5 -28 l-17 -24 0 27 c0 20 -5 27 -20 27 -15 0 -21 -9 -26
-40 -6 -39 -20 -47 -65 -42 -4 1 -15 -8 -25 -19 -15 -17 -16 -24 -6 -40 7 -11
8 -19 2 -19 -5 0 -10 -7 -10 -15 0 -11 11 -15 40 -15 29 0 40 4 40 15 0 8 -9
15 -21 15 -16 0 -19 4 -13 23 9 29 14 34 22 22 4 -6 16 -12 27 -13 27 -5 44
-23 28 -29 -8 -3 -13 -22 -13 -44 0 -35 3 -39 25 -39 32 0 32 -16 0 -24 -15
-4 -27 -16 -31 -31 -5 -21 -12 -25 -40 -25 -33 0 -34 -1 -34 -40 0 -36 -2 -40
-25 -40 -16 0 -36 -11 -50 -27 -21 -24 -26 -26 -35 -13 -9 13 -14 11 -35 -12
-24 -28 -45 -36 -45 -18 0 6 -19 10 -42 10 -52 0 -120 25 -135 49 -11 17 -8
19 28 19 22 1 47 6 55 13 13 10 12 14 -3 31 -16 18 -72 52 -74 46 0 -2 -2 -10
-4 -20 -2 -9 -8 -24 -14 -35 -10 -17 -10 -17 -11 2 -1 19 -1 19 -14 3 -7 -10
-23 -18 -35 -18 -12 0 -33 -12 -46 -27 l-24 -28 -1 24 c0 13 -11 32 -25 43
-28 22 -32 38 -10 38 18 0 18 -1 0 44 -15 35 -17 36 -66 36 -44 0 -54 4 -76
30 -18 22 -31 29 -44 25 -13 -4 -19 -1 -19 9 0 9 -5 16 -10 16 -6 0 -22 12
-36 28 -17 18 -27 23 -31 15 -3 -8 -25 -13 -57 -13 -30 0 -60 -6 -72 -15 -19
-14 -19 -14 0 -15 14 0 17 -3 10 -10 -15 -15 -44 -1 -44 21 0 22 -7 23 -40 4
-14 -8 -37 -14 -51 -15 -14 0 -35 -11 -46 -24 -15 -17 -28 -23 -42 -19 -15 4
-21 1 -21 -12 0 -9 -13 -35 -29 -58 -29 -43 -31 -47 -31 -72 0 -8 -7 -15 -15
-15 -8 0 -16 -6 -16 -12 -1 -7 -3 -20 -4 -28 -1 -8 -3 -21 -4 -27 -1 -13 -78
-73 -93 -73 -4 0 -8 8 -8 19 0 10 -9 21 -20 24 -13 3 -20 14 -20 30 0 27 -36
61 -53 50 -5 -3 -4 -9 3 -13 8 -5 5 -9 -9 -13 -29 -7 -27 -17 15 -65 32 -38
34 -47 12 -43 -5 0 -8 -3 -8 -8 0 -6 -19 -11 -42 -13 -56 -4 -58 -20 -18 -103
27 -55 30 -70 22 -94 -6 -17 -8 -40 -5 -53 5 -20 1 -18 -26 12 -18 19 -44 55
-59 80 -14 25 -29 47 -33 50 -3 3 -22 36 -42 73 -106 201 -175 508 -184 822
-5 161 -2 198 21 350 15 94 31 186 36 205 5 19 19 94 30 165 28 178 76 377
157 660 51 180 157 439 189 466 8 6 14 16 14 22 0 6 17 33 38 61 54 74 92 131
92 140 0 4 -7 14 -15 22 -13 13 -14 12 -9 -15 5 -26 3 -31 -12 -31 -16 0 -17
2 -4 10 13 8 12 10 -3 10 -22 0 -56 -38 -57 -63 0 -10 -15 -31 -34 -48 -19
-16 -37 -43 -41 -59 -4 -16 -10 -28 -15 -27 -8 2 -60 -49 -60 -60 0 -3 -22
-36 -49 -73 -28 -37 -48 -70 -45 -72 2 -3 -7 -15 -21 -28 -14 -13 -25 -29 -25
-36 0 -7 -10 -14 -22 -16 -16 -2 -24 -12 -29 -34 -3 -18 -20 -47 -37 -65 -18
-19 -32 -42 -32 -52 0 -10 -7 -20 -15 -23 -8 -4 -15 -12 -15 -20 0 -8 -4 -14
-10 -14 -5 0 -10 -8 -10 -19 0 -19 -23 -45 -32 -36 -5 5 -48 -85 -48 -99 0 -4
-13 -25 -30 -48 -16 -22 -30 -45 -30 -51 0 -5 -11 -18 -25 -29 -14 -11 -25
-30 -25 -44 0 -13 -3 -24 -7 -24 -11 0 -33 -50 -33 -74 0 -20 -39 -86 -52 -86
-18 0 -68 -64 -68 -87 0 -19 -4 -24 -15 -19 -9 3 -15 1 -14 -7 3 -28 -2 -47
-13 -47 -7 -1 -25 -19 -40 -40 -20 -29 -35 -40 -53 -40 -14 0 -25 -5 -25 -11
0 -5 -4 -7 -10 -4 -5 3 -10 -1 -10 -9 0 -9 -4 -16 -9 -16 -15 0 -22 -33 -9
-42 11 -6 10 -8 0 -8 -7 0 -11 -4 -8 -9 3 -5 -10 -18 -30 -30 -19 -12 -33 -25
-29 -31 10 -15 -31 -30 -84 -30 -37 0 -51 4 -51 14 0 8 -5 16 -12 18 -9 3 -9
12 2 37 11 26 11 34 1 41 -11 6 -11 14 0 43 10 30 10 43 -1 78 -29 86 -71 111
-108 64 -11 -14 -25 -25 -31 -25 -6 0 -11 -7 -11 -15 0 -10 -11 -15 -35 -15
-30 0 -44 -9 -99 -65 -39 -39 -72 -65 -85 -65 -11 0 -21 -4 -21 -9 0 -5 -18
-16 -40 -25 -22 -9 -40 -23 -40 -31 0 -9 -9 -15 -22 -15 -23 0 -58 -26 -58
-44 -1 -6 -19 -23 -40 -38 -22 -15 -40 -35 -40 -43 0 -8 -4 -15 -10 -15 -5 0
-10 -8 -10 -17 0 -10 -33 -51 -73 -90 -39 -40 -82 -86 -95 -103 -13 -16 -28
-30 -33 -30 -5 0 -20 -9 -32 -20 -12 -12 -32 -23 -44 -26 -13 -4 -23 -13 -23
-21 0 -8 -4 -11 -10 -8 -5 3 -15 -4 -22 -15 -22 -36 -105 -90 -138 -90 -17 0
-42 -7 -56 -16 -19 -13 -52 -17 -152 -18 -70 0 -147 3 -172 7 -75 13 -139 32
-152 45 -7 7 -18 12 -25 12 -7 0 -13 4 -13 9 0 5 -13 14 -29 19 -30 11 -91 70
-91 89 0 6 -4 13 -8 15 -11 4 -62 108 -62 125 0 8 -9 32 -20 55 -17 36 -19 55
-15 152 11 233 52 440 165 822 33 111 60 211 60 223 0 20 -4 21 -52 15 -83 -9
-350 32 -482 73 -28 8 -59 17 -70 18 -67 10 -188 47 -271 84 -34 15 -59 23
-80 26 -40 6 -111 37 -172 76 -54 35 -64 47 -78 90 -21 62 -14 113 26 195 38
81 91 129 150 137 25 3 78 21 119 38 62 27 87 32 145 32 70 -1 223 -20 385
-48 151 -26 272 -44 435 -65 88 -12 168 -23 177 -26 40 -12 39 -13 214 376
256 570 472 916 732 1173 242 240 609 473 892 567 266 89 602 127 881 100z
m14349 -550 c0 -5 -5 -10 -11 -10 -5 0 -7 5 -4 10 3 6 8 10 11 10 2 0 4 -4 4
-10z m-12860 -424 c0 -3 -4 -8 -10 -11 -5 -3 -10 -1 -10 4 0 6 5 11 10 11 6 0
10 -2 10 -4z m-1498 -1318 c-7 -7 -12 -8 -12 -2 0 14 12 26 19 19 2 -3 -1 -11
-7 -17z m11281 -17 c14 -5 52 -11 86 -13 41 -2 61 -7 61 -15 0 -7 8 -13 17
-13 9 0 24 -7 33 -15 9 -8 31 -16 49 -18 37 -4 51 -20 51 -59 0 -26 -10 -34
-35 -28 -190 46 -360 41 -580 -20 -44 -12 -100 -23 -125 -25 -59 -4 -106 -19
-102 -34 1 -6 -7 -11 -18 -11 -11 0 -20 -5 -20 -11 0 -5 -4 -8 -9 -4 -6 3 -15
-4 -21 -15 -7 -14 -17 -19 -29 -15 -21 6 -71 -29 -71 -51 0 -10 -7 -13 -24 -8
-19 4 -25 1 -30 -21 -4 -14 -4 -30 -1 -34 3 -5 -1 -11 -9 -14 -8 -3 -17 1 -20
9 -8 20 -43 -2 -51 -33 -3 -13 -9 -23 -13 -23 -7 0 -56 -35 -176 -127 -26 -20
-48 -30 -61 -27 -16 4 -17 3 -5 -5 13 -9 13 -14 2 -31 -12 -20 -11 -21 35 -18
33 2 48 -1 48 -9 0 -7 3 -13 8 -13 4 0 16 0 27 0 13 0 22 9 26 28 8 33 119
142 145 142 5 0 14 12 21 28 10 19 20 26 35 24 26 -4 63 14 81 39 18 26 70 50
76 35 3 -7 9 -5 16 7 6 9 21 17 33 17 12 0 40 11 62 25 22 13 47 25 55 25 8 0
27 7 43 14 24 13 27 13 27 -2 1 -13 6 -11 23 10 19 23 31 28 79 30 35 2 60 8
62 16 8 18 34 15 45 -7 8 -15 5 -20 -15 -30 -14 -6 -29 -9 -34 -6 -4 3 -10 -2
-14 -10 -3 -9 -18 -15 -37 -15 -26 0 -30 -3 -24 -17 5 -14 3 -15 -5 -6 -15 14
-50 -13 -50 -39 0 -10 -4 -19 -10 -19 -19 -3 -25 -5 -60 -24 -19 -10 -41 -18
-47 -17 -7 2 -13 -6 -13 -18 0 -11 -6 -20 -14 -20 -8 0 -17 -11 -20 -25 -5
-20 -11 -24 -29 -19 -23 5 -57 -20 -44 -33 3 -3 -1 -19 -9 -35 -11 -21 -21
-28 -37 -26 -16 2 -22 -2 -23 -17 -3 -47 -15 -66 -42 -63 -19 2 -27 -2 -30
-16 -3 -14 0 -17 12 -13 12 5 16 0 16 -23 0 -21 -4 -28 -14 -24 -7 3 -20 -2
-29 -10 -9 -9 -25 -16 -36 -16 -12 0 -21 -4 -21 -10 0 -5 5 -10 10 -10 6 0 3
-9 -7 -20 -10 -10 -30 -42 -43 -69 -14 -28 -30 -51 -37 -51 -7 0 -21 -20 -32
-45 -14 -33 -24 -43 -36 -39 -11 5 -14 2 -8 -12 5 -13 3 -16 -9 -11 -21 8 -53
-16 -44 -32 5 -7 14 -10 22 -7 8 3 14 1 14 -4 0 -6 -7 -10 -15 -10 -9 0 -18
-12 -21 -29 -5 -26 -9 -28 -24 -18 -32 19 -48 -5 -42 -63 4 -45 3 -50 -16 -50
-12 0 -26 8 -31 18 -9 15 -12 15 -20 2 -7 -10 -6 -17 2 -22 9 -6 4 -15 -15
-33 -31 -26 -35 -40 -15 -49 9 -5 9 -7 0 -12 -27 -13 -63 -46 -63 -59 0 -8 -6
-12 -13 -9 -8 3 -18 -10 -26 -33 -10 -27 -11 -38 -2 -41 13 -4 15 -32 2 -32
-11 0 -35 -69 -27 -77 12 -12 -16 -45 -35 -40 -10 3 -22 1 -25 -4 -3 -5 -17
-9 -32 -9 -26 0 -27 2 -24 45 3 34 1 45 -9 43 -8 -2 -18 14 -24 41 -8 30 -19
48 -33 54 -28 13 -28 22 3 53 16 16 25 36 25 57 0 18 5 38 12 45 8 8 8 15 -2
27 -18 22 -45 11 -101 -44 -125 -120 -146 -135 -198 -147 l-51 -11 0 26 c0 15
-5 32 -10 37 -7 7 -3 19 13 36 13 14 34 42 47 63 13 20 28 34 35 31 8 -3 18 8
25 24 7 16 20 32 29 35 9 3 26 26 36 52 11 25 39 71 62 101 24 31 43 59 43 62
0 4 13 23 30 41 16 19 35 44 42 57 6 13 36 48 65 80 29 31 53 64 53 73 0 20
49 81 50 62 0 -7 7 -10 16 -6 12 4 13 8 3 13 -8 6 14 34 70 90 44 45 81 84 81
86 0 8 62 63 118 106 29 22 56 46 59 54 3 8 11 14 19 14 7 0 19 8 26 18 20 27
84 73 91 65 4 -3 7 1 7 9 0 14 23 33 80 66 8 5 33 17 55 27 22 9 51 23 65 30
14 7 31 10 37 8 7 -3 16 2 19 11 7 18 59 46 84 46 10 0 23 7 30 15 7 8 20 15
29 15 9 0 34 9 56 20 21 11 55 22 74 26 20 3 45 9 56 14 11 4 47 12 80 18 33
5 63 10 67 11 4 0 18 -3 31 -8z m-473 -281 c0 -5 -4 -10 -10 -10 -5 0 -10 5
-10 10 0 6 5 10 10 10 6 0 10 -4 10 -10z m45 -200 c3 -5 1 -10 -4 -10 -6 0
-11 5 -11 10 0 6 2 10 4 10 3 0 8 -4 11 -10z m6445 -191 c0 -5 -13 -38 -29
-72 -16 -34 -38 -83 -49 -109 -25 -55 -46 -74 -36 -31 4 15 13 40 20 55 8 14
21 48 30 75 9 26 22 58 30 71 15 23 34 30 34 11z m-15027 -404 c-10 -13 -22
-25 -27 -25 -5 0 1 11 14 25 30 32 36 32 13 0z m7084 -51 c17 -65 16 -91 -2
-98 -8 -3 -15 -12 -15 -21 0 -8 -4 -15 -9 -15 -6 0 -10 42 -10 96 1 106 14
121 36 38z m-22 -154 c3 -5 1 -10 -4 -10 -6 0 -11 5 -11 10 0 6 2 10 4 10 3 0
8 -4 11 -10z m-14355 -40 c0 -5 -2 -10 -4 -10 -3 0 -8 5 -11 10 -3 6 -1 10 4
10 6 0 11 -4 11 -10z m38 -67 c10 -21 31 -60 46 -86 15 -27 25 -51 23 -54 -6
-5 -57 79 -57 94 0 6 -6 16 -14 22 -12 10 -29 61 -20 61 2 0 12 -17 22 -37z
m9596 -78 c-4 -8 -8 -15 -10 -15 -2 0 -4 7 -4 15 0 8 4 15 10 15 5 0 7 -7 4
-15z m-9475 -140 c0 -5 -9 1 -19 14 -11 13 -20 28 -20 35 0 6 9 0 20 -14 11
-14 20 -29 19 -35z m14449 22 c23 -24 29 -36 22 -47 -22 -34 -11 -55 41 -77
28 -13 55 -23 60 -23 5 0 9 -9 9 -19 0 -11 5 -23 10 -26 15 -9 1 -166 -16
-186 -8 -8 -14 -28 -14 -43 0 -32 -31 -103 -57 -131 -29 -30 -103 -178 -103
-204 0 -6 -7 -11 -15 -11 -9 0 -18 -12 -21 -29 -4 -17 -12 -32 -19 -35 -8 -3
-12 -20 -10 -50 2 -27 -1 -46 -7 -46 -12 0 -88 -76 -88 -88 0 -5 -13 -24 -30
-42 -16 -18 -30 -41 -30 -49 0 -9 -19 -39 -43 -66 -24 -28 -60 -74 -81 -102
-21 -29 -41 -53 -45 -53 -8 0 -56 -100 -66 -137 -3 -13 -11 -22 -17 -20 -6 1
-40 -34 -75 -78 -133 -166 -288 -329 -307 -322 -7 2 -11 28 -10 64 1 69 9 91
126 333 44 91 89 187 100 215 11 27 23 54 27 60 4 5 18 37 31 70 12 33 37 92
56 132 18 39 38 89 43 111 6 22 18 45 26 52 8 7 15 20 15 30 0 9 10 28 23 41
13 13 36 49 51 79 15 30 33 66 41 80 8 14 15 35 15 46 0 12 9 33 20 47 11 14
20 28 20 31 0 9 41 91 84 168 20 37 37 70 36 73 0 3 10 29 23 58 13 28 32 76
41 105 10 28 21 52 24 52 4 0 18 16 31 35 13 19 29 35 35 35 7 0 26 -15 44
-33z m-14392 -124 c-6 -6 -46 56 -46 72 0 5 12 -8 26 -28 14 -21 23 -41 20
-44z m9584 8 c0 -6 -4 -13 -10 -16 -5 -3 -10 1 -10 9 0 9 5 16 10 16 6 0 10
-4 10 -9z m12411 -614 c-8 -8 -11 -7 -11 4 0 9 3 19 7 23 4 4 9 2 11 -4 3 -7
-1 -17 -7 -23z m-24 -39 c-3 -8 -6 -5 -6 6 -1 11 2 17 5 13 3 -3 4 -12 1 -19z
m-5432 -162 c61 -8 243 -34 405 -56 162 -23 432 -65 600 -94 168 -30 350 -59
405 -66 55 -7 215 -34 355 -60 140 -26 320 -60 400 -75 207 -38 250 -53 277
-94 19 -28 23 -47 23 -105 -1 -39 -7 -96 -15 -126 -16 -66 -18 -60 -15 48 1
71 0 81 -14 76 -9 -3 -21 -25 -27 -48 -6 -22 -19 -68 -30 -100 -10 -33 -19
-67 -19 -77 0 -9 -7 -29 -14 -45 -8 -15 -13 -31 -10 -36 3 -4 0 -23 -7 -42 -9
-24 -24 -39 -53 -53 -37 -17 -48 -18 -111 -7 -38 6 -77 14 -85 17 -8 3 -42 8
-75 12 -67 6 -308 39 -400 55 -121 20 -182 25 -302 22 -118 -3 -124 -2 -187
28 -36 16 -74 30 -86 30 -26 0 -205 47 -246 65 -17 7 -56 16 -87 20 -32 4 -57
11 -57 15 0 4 -19 10 -43 12 -23 3 -58 12 -77 21 -19 8 -49 21 -66 28 -18 7
-30 18 -27 25 2 7 -4 14 -14 16 -10 2 -18 12 -18 23 0 16 -15 24 -75 43 -91
28 -127 37 -205 53 -33 6 -70 18 -82 25 -12 8 -29 14 -38 14 -8 0 -20 11 -25
25 -5 14 -18 28 -27 32 -10 3 -33 22 -51 41 -30 32 -35 34 -57 22 -24 -13 -55
-8 -55 9 0 5 8 11 18 14 9 2 -2 8 -25 12 -45 8 -54 19 -26 29 14 6 11 12 -18
35 l-34 29 49 14 c60 18 77 38 58 69 -12 18 -12 23 0 30 7 5 19 9 26 9 10 0
10 5 2 20 -7 13 -21 20 -40 20 -17 0 -30 5 -30 10 0 6 8 10 18 10 16 1 16 1
-1 11 -49 28 12 27 238 -5z m5905 -151 c0 -8 -4 -15 -10 -15 -5 0 -10 7 -10
15 0 8 5 15 10 15 6 0 10 -7 10 -15z m160 -25 c0 -29 -4 -40 -15 -40 -11 0
-15 11 -15 40 0 29 4 40 15 40 11 0 15 -11 15 -40z m-17080 0 c0 -5 -2 -10 -4
-10 -3 0 -8 5 -11 10 -3 6 -1 10 4 10 6 0 11 -4 11 -10z m385 -50 c-3 -5 -10
-10 -16 -10 -5 0 -9 5 -9 10 0 6 7 10 16 10 8 0 12 -4 9 -10z m5035 -530 c-25
-47 -100 -64 -100 -23 0 24 31 42 73 43 35 0 37 -2 27 -20z m8665 -59 c-3 -6
-11 -11 -17 -11 -6 0 -6 6 2 15 14 17 26 13 15 -4z m-8813 -53 c3 -7 2 -24 -2
-38 l-6 -25 -12 22 c-8 14 -18 20 -32 16 -23 -6 -26 2 -7 22 15 18 53 19 59 3z
m12048 -108 c0 -29 -4 -40 -15 -40 -11 0 -15 11 -15 40 0 29 4 40 15 40 11 0
15 -11 15 -40z m-12060 0 c0 -5 -4 -10 -10 -10 -5 0 -10 5 -10 10 0 6 5 10 10
10 6 0 10 -4 10 -10z m-7673 -996 c-3 -3 -12 -4 -19 -1 -8 3 -5 6 6 6 11 1 17
-2 13 -5z m1738 -883 c-3 -6 -11 -11 -16 -11 -5 0 -4 6 3 14 14 16 24 13 13
-3z m85 9 c0 -5 -4 -10 -10 -10 -5 0 -10 5 -10 10 0 6 5 10 10 10 6 0 10 -4
10 -10z m-1473 -816 c-3 -3 -12 -4 -19 -1 -8 3 -5 6 6 6 11 1 17 -2 13 -5z
m85 -39 c4 -5 8 -17 8 -25 -1 -11 -5 -9 -19 6 -9 12 -26 23 -36 25 -10 2 -20
9 -22 16 -5 14 57 -5 69 -22z m161 -118 c-3 -5 -10 -4 -15 1 -6 6 -7 16 -3 22
6 9 9 9 16 -1 4 -7 5 -17 2 -22z m237 -103 c0 -8 -4 -12 -10 -9 -5 3 -10 10
-10 16 0 5 5 9 10 9 6 0 10 -7 10 -16z m17220 -2734 c0 -29 -4 -40 -15 -40
-11 0 -15 11 -15 40 0 29 4 40 15 40 11 0 15 -11 15 -40z m-240 -240 c0 -29
-4 -40 -15 -40 -11 0 -15 11 -15 40 0 29 4 40 15 40 11 0 15 -11 15 -40z
m-1760 -1145 c0 -8 -7 -15 -16 -15 -14 0 -14 3 -4 15 7 8 14 15 16 15 2 0 4
-7 4 -15z m-8295 -165 c3 -5 -1 -10 -9 -10 -9 0 -16 5 -16 10 0 6 4 10 9 10 6
0 13 -4 16 -10z m7415 -235 c0 -8 -7 -15 -16 -15 -14 0 -14 3 -4 15 7 8 14 15
16 15 2 0 4 -7 4 -15z m-6695 -5 c3 -5 -1 -10 -9 -10 -9 0 -16 5 -16 10 0 6 4
10 9 10 6 0 13 -4 16 -10z m4855 -475 c0 -8 -7 -15 -16 -15 -14 0 -14 3 -4 15
7 8 14 15 16 15 2 0 4 -7 4 -15z"/>
<path d="M21200 29830 c0 -5 4 -10 9 -10 6 0 13 5 16 10 3 6 -1 10 -9 10 -9 0
-16 -4 -16 -10z"/>
<path d="M24920 22224 c0 -8 5 -12 10 -9 6 3 10 10 10 16 0 5 -4 9 -10 9 -5 0
-10 -7 -10 -16z"/>
<path d="M11200 28419 c0 -5 5 -7 10 -4 6 3 10 8 10 11 0 2 -4 4 -10 4 -5 0
-10 -5 -10 -11z"/>
<path d="M13671 27451 c-12 -8 -13 -14 -3 -35 6 -14 18 -26 26 -26 7 0 19 -6
25 -14 6 -8 20 -16 29 -18 25 -7 21 33 -6 60 -12 12 -22 27 -22 32 0 12 -30
13 -49 1z"/>
<path d="M13495 27280 c-7 -12 2 -30 16 -30 5 0 9 9 9 20 0 21 -15 27 -25 10z"/>
<path d="M13960 27148 c0 -37 29 -108 44 -108 6 1 23 11 37 23 23 19 25 26 17
54 -5 21 -19 38 -38 48 -46 24 -60 20 -60 -17z"/>
<path d="M13340 26785 c0 -8 -6 -12 -14 -9 -8 3 -23 -3 -33 -13 -17 -17 -19
-32 -16 -114 1 -52 3 -98 3 -102 0 -5 5 -5 11 -1 7 4 19 -2 28 -13 9 -12 32
-24 52 -27 31 -6 39 -3 53 18 13 20 14 30 4 51 -6 14 -19 25 -28 25 -9 0 -22
11 -28 25 -14 31 -16 111 -2 120 6 3 5 15 -2 30 -12 28 -28 33 -28 10z"/>
<path d="M12925 26523 c-27 -24 -30 -32 -29 -81 2 -57 21 -86 49 -75 8 2 27
-2 42 -10 15 -8 40 -20 55 -27 23 -11 25 -16 17 -36 -5 -16 -4 -33 4 -52 17
-38 57 -97 57 -84 0 6 18 17 40 23 22 7 40 18 40 25 0 16 -31 34 -60 34 -31 0
-46 41 -32 87 7 24 8 42 1 55 -8 15 -6 18 11 18 28 0 26 8 -18 64 -30 40 -48
53 -92 67 -30 10 -55 18 -55 18 0 0 -13 -12 -30 -26z"/>
<path d="M15252 26415 c6 -14 17 -25 25 -25 7 0 13 11 13 25 0 20 -5 25 -25
25 -23 0 -24 -2 -13 -25z"/>
<path d="M17485 26270 c-3 -5 -1 -10 4 -10 6 0 11 5 11 10 0 6 -2 10 -4 10 -3
0 -8 -4 -11 -10z"/>
<path d="M12830 26200 c0 -6 -10 -14 -23 -19 -15 -6 -27 -23 -35 -50 -17 -56
-17 -196 0 -216 54 -63 70 -75 97 -75 45 0 78 16 112 55 17 19 37 35 45 35 8
0 14 7 14 15 0 8 9 15 20 15 24 0 46 36 27 44 -7 3 -3 7 11 11 24 8 31 45 8
45 -7 0 -19 6 -25 14 -6 7 -35 16 -65 20 -82 9 -165 44 -172 72 -3 13 -3 28 1
33 3 6 1 11 -4 11 -6 0 -11 -5 -11 -10z"/>
<path d="M13373 26005 c-16 -17 -17 -35 -3 -35 6 0 10 7 10 15 0 8 7 15 16 15
8 0 12 5 9 10 -8 13 -18 12 -32 -5z"/>
<path d="M12309 25919 c-8 -5 -28 -9 -45 -9 -31 0 -94 -18 -104 -29 -3 -3 -13
-6 -24 -6 -46 0 -72 -164 -40 -258 16 -48 76 -107 108 -107 9 0 16 -4 16 -8 0
-4 23 -16 50 -27 28 -11 50 -23 50 -27 0 -4 18 -8 40 -8 39 0 40 1 40 34 0 19
9 51 21 70 12 21 18 43 14 55 -3 11 -1 22 5 26 8 5 9 30 5 75 -12 132 -46 216
-82 203 -9 -4 -21 1 -28 10 -7 10 -16 13 -26 6z"/>
<path d="M13320 25890 l0 -30 20 20 c11 11 20 25 20 30 0 6 -9 10 -20 10 -16
0 -20 -7 -20 -30z"/>
<path d="M13520 25850 c0 -5 7 -10 16 -10 8 0 12 5 9 10 -3 6 -10 10 -16 10
-5 0 -9 -4 -9 -10z"/>
<path d="M13600 25850 c0 -5 5 -10 11 -10 5 0 7 5 4 10 -3 6 -8 10 -11 10 -2
0 -4 -4 -4 -10z"/>
<path d="M13397 25733 c-3 -16 -2 -34 2 -40 4 -7 7 5 8 27 2 46 -2 52 -10 13z"/>
<path d="M16404 23189 c-8 -13 54 -72 67 -63 5 3 8 0 7 -7 -2 -6 3 -14 10 -16
22 -8 13 18 -18 49 -18 17 -37 28 -45 24 -8 -3 -15 -1 -15 3 0 5 6 12 13 14 9
4 9 6 0 6 -6 1 -15 -4 -19 -10z"/>
<path d="M16290 23183 c0 -5 9 -14 20 -21 11 -7 20 -8 20 -2 0 5 -9 14 -20 20
-11 6 -20 7 -20 3z"/>
<path d="M14121 22304 c0 -11 3 -14 6 -6 3 7 2 16 -1 19 -3 4 -6 -2 -5 -13z"/>
<path d="M16586 22302 c-18 -29 48 -133 73 -117 16 9 14 30 -4 45 -8 7 -15 20
-15 30 0 9 -8 24 -18 33 -21 19 -28 21 -36 9z"/>
<path d="M16873 22195 c0 -27 2 -38 4 -22 2 15 2 37 0 50 -2 12 -4 0 -4 -28z"/>
<path d="M14451 22090 c6 -16 15 -30 20 -30 5 0 9 -9 9 -20 0 -26 31 -26 54
-1 16 18 15 20 -30 50 -59 39 -66 39 -53 1z"/>
<path d="M16806 22004 c-8 -22 -7 -34 3 -34 5 0 9 11 9 25 0 29 -3 31 -12 9z"/>
<path d="M14558 21763 c-43 -5 -47 -20 -25 -86 22 -60 34 -66 52 -24 8 20 21
52 29 71 14 35 12 47 -8 44 -6 -1 -28 -3 -48 -5z"/>
<path d="M13516 21743 c-6 -14 -5 -15 5 -6 7 7 10 15 7 18 -3 3 -9 -2 -12 -12z"/>
<path d="M16257 21276 c-14 -21 -14 -26 -2 -36 8 -7 15 -19 15 -26 0 -8 6 -14
13 -14 15 0 37 46 37 77 0 32 -42 31 -63 -1z"/>
<path d="M14450 20352 c-29 -20 -56 -53 -52 -65 1 -5 -7 -11 -18 -14 -28 -7
-26 -46 8 -113 l28 -55 54 0 c51 0 55 2 53 23 -2 13 3 22 11 22 15 0 26 21 26
52 0 16 -5 19 -25 14 -20 -5 -23 -3 -18 10 3 8 1 32 -5 52 -6 20 -14 49 -17
65 -6 31 -11 32 -45 9z m10 -149 c0 -20 -34 -12 -38 9 -2 12 2 15 17 11 12 -3
21 -12 21 -20z"/>
<path d="M13569 19958 c-6 -10 -5 -78 1 -78 12 0 33 48 27 64 -5 13 -24 22
-28 14z"/>
<path d="M14260 19598 c0 -26 18 -41 36 -33 11 5 22 8 25 7 4 -1 5 8 2 18 -6
23 -63 29 -63 8z"/>
<path d="M13920 19400 c0 -13 48 -36 56 -27 4 3 4 13 1 22 -7 17 -57 21 -57 5z"/>
<path d="M18478 25685 c-10 -11 3 -41 24 -54 28 -17 35 -5 16 27 -17 28 -30
36 -40 27z"/>
<path d="M18255 25189 c-8 -37 -3 -43 30 -35 28 7 32 27 9 50 -23 23 -32 20
-39 -15z"/>
<path d="M10711 23324 c0 -11 3 -14 6 -6 3 7 2 16 -1 19 -3 4 -6 -2 -5 -13z"/>
<path d="M11212 22941 c-14 -9 -7 -61 9 -61 5 0 9 -8 9 -17 1 -16 2 -16 15 1
18 24 19 58 3 74 -14 14 -19 15 -36 3z"/>
<path d="M8740 22780 c0 -16 5 -32 10 -35 13 -8 60 21 60 37 0 6 -3 8 -7 5 -3
-4 -11 -3 -17 2 -6 4 -19 11 -28 14 -15 5 -18 1 -18 -23z"/>
<path d="M8670 22784 c0 -8 5 -12 10 -9 6 3 10 10 10 16 0 5 -4 9 -10 9 -5 0
-10 -7 -10 -16z"/>
<path d="M8657 22703 c-13 -15 -13 -21 -2 -37 8 -10 25 -24 39 -31 30 -16 44
-4 56 50 l8 35 -43 0 c-27 0 -47 -6 -58 -17z"/>
<path d="M8604 22522 c-6 -4 -14 -20 -18 -35 -7 -28 -8 -29 -56 -22 -43 6 -50
4 -50 -10 0 -9 9 -19 20 -22 11 -3 20 -12 20 -19 0 -16 26 -19 35 -4 3 6 -1 7
-9 4 -30 -12 -16 12 18 30 28 15 38 16 56 6 34 -18 54 6 39 48 -11 31 -31 40
-55 24z"/>
<path d="M8396 22469 c3 -5 0 -9 -7 -9 -6 0 -9 -8 -6 -20 3 -11 -1 -27 -9 -35
-9 -8 -17 -42 -20 -78 l-5 -64 36 -27 c24 -18 42 -25 53 -20 32 13 54 11 65
-7 8 -12 19 -16 33 -13 13 3 33 -2 48 -11 38 -25 57 -14 46 27 -6 17 -17 36
-25 41 -22 12 -19 22 10 35 24 11 24 13 12 44 -16 39 -67 59 -67 27 0 -15 -5
-18 -24 -13 -13 3 -27 1 -30 -5 -13 -21 -24 -11 -31 30 -5 29 -13 43 -26 46
-12 3 -19 14 -19 28 0 14 -7 25 -20 28 -11 3 -18 1 -14 -4z m164 -221 c0 -16
-3 -19 -11 -11 -6 6 -8 16 -5 22 11 17 16 13 16 -11z"/>
<path d="M8280 22200 c0 -5 5 -10 10 -10 6 0 10 5 10 10 0 6 -4 10 -10 10 -5
0 -10 -4 -10 -10z"/>
<path d="M8450 22170 c0 -5 -7 -10 -15 -10 -8 0 -15 -4 -15 -10 0 -5 -4 -10
-10 -10 -5 0 -10 6 -10 13 0 9 -9 12 -29 9 -22 -3 -28 -8 -24 -23 3 -10 12
-19 19 -19 8 0 19 -10 24 -22 5 -13 9 -18 9 -11 1 7 15 16 33 21 17 4 37 17
44 28 12 17 11 21 -6 32 -12 7 -20 8 -20 2z"/>
<path d="M8711 22034 c0 -11 3 -14 6 -6 3 7 2 16 -1 19 -3 4 -6 -2 -5 -13z"/>
<path d="M8422 21915 c-7 -16 -17 -23 -27 -19 -8 3 -15 1 -15 -5 0 -6 -7 -11
-15 -11 -20 0 -19 -16 0 -24 9 -3 18 1 21 8 3 8 13 12 23 9 13 -3 23 5 35 28
19 39 19 39 3 39 -8 0 -19 -11 -25 -25z"/>
<path d="M9932 21908 c-7 -7 -12 -21 -11 -32 0 -15 2 -16 6 -6 3 8 15 23 27
32 16 13 17 18 6 18 -9 0 -21 -5 -28 -12z"/>
<path d="M10733 21693 c9 -2 23 -2 30 0 6 3 -1 5 -18 5 -16 0 -22 -2 -12 -5z"/>
<path d="M9162 21411 c-14 -32 -9 -54 23 -85 20 -20 25 -21 48 -10 32 17 42
43 19 51 -24 9 -62 46 -62 61 0 21 -15 13 -28 -17z"/>
<path d="M8427 20534 c-21 -28 -16 -74 8 -74 19 0 28 17 13 23 -8 3 -5 6 5 6
18 1 47 23 47 35 0 3 -7 6 -15 6 -9 0 -18 7 -21 15 -8 21 -16 18 -37 -11z"/>
<path d="M8905 20250 c-3 -5 -1 -10 4 -10 6 0 11 5 11 10 0 6 -2 10 -4 10 -3
0 -8 -4 -11 -10z"/>
<path d="M18835 22780 c-3 -5 1 -10 9 -10 9 0 16 5 16 10 0 6 -4 10 -9 10 -6
0 -13 -4 -16 -10z"/>
<path d="M17740 21485 c-8 -45 -8 -47 2 -37 5 5 8 18 5 28 -3 11 -6 15 -7 9z"/>
<path d="M27470 39370 c0 -5 5 -10 10 -10 6 0 10 5 10 10 0 6 -4 10 -10 10 -5
0 -10 -4 -10 -10z"/>
<path d="M27250 39160 c0 -29 4 -40 15 -40 11 0 15 11 15 40 0 29 -4 40 -15
40 -11 0 -15 -11 -15 -40z"/>
<path d="M24480 37370 c0 -5 7 -10 15 -10 8 0 15 5 15 10 0 6 -7 10 -15 10 -8
0 -15 -4 -15 -10z"/>
<path d="M24367 37300 c-14 -11 -34 -20 -45 -20 -11 0 -22 -7 -25 -15 -4 -8
-24 -23 -47 -35 -22 -11 -50 -32 -62 -45 -12 -14 -29 -25 -37 -25 -9 0 -42
-19 -73 -43 -31 -23 -67 -49 -79 -57 -12 -8 -31 -23 -41 -32 -10 -10 -21 -18
-25 -18 -10 0 -94 -93 -120 -133 -25 -41 -23 -57 8 -57 13 0 19 -7 19 -24 0
-23 3 -24 38 -19 20 3 39 10 40 15 2 4 12 8 23 8 11 0 30 6 42 14 12 8 37 17
56 21 19 4 48 21 65 37 17 16 43 35 57 43 14 8 38 30 53 49 15 20 33 36 40 36
7 0 23 11 35 24 13 14 29 22 36 20 13 -5 42 52 32 63 -4 3 5 14 18 25 18 14
25 29 25 55 0 26 7 40 25 55 33 25 32 56 -1 68 -32 13 -27 13 -57 -10z"/>
<path d="M25570 37276 c0 -2 7 -9 15 -16 12 -10 15 -10 15 4 0 9 -7 16 -15 16
-8 0 -15 -2 -15 -4z"/>
<path d="M24846 37185 c-3 -8 -11 -15 -19 -15 -16 0 -51 -37 -60 -62 -6 -16
-26 -23 -51 -19 -13 3 -26 -20 -26 -46 0 -12 -11 -30 -25 -41 -19 -15 -25 -29
-25 -61 0 -23 2 -41 5 -41 18 0 98 46 102 59 10 26 35 51 53 51 9 0 30 15 48
33 29 30 32 39 32 95 0 46 -4 62 -14 62 -8 0 -16 -7 -20 -15z m14 -109 c0 -2
-8 -10 -17 -17 -16 -13 -17 -12 -4 4 13 16 21 21 21 13z"/>
<path d="M25316 37105 c5 -11 11 -12 25 -4 26 13 24 19 -6 19 -17 0 -23 -4
-19 -15z"/>
<path d="M25186 36741 c-4 -7 -5 -15 -2 -18 9 -9 19 4 14 18 -4 11 -6 11 -12
0z"/>
<path d="M24788 36538 c-4 -9 -22 -21 -40 -26 -18 -5 -32 -15 -30 -21 1 -7 -2
-10 -8 -6 -5 3 -13 -1 -16 -10 -7 -18 -46 -37 -82 -39 -13 -1 -28 -9 -33 -19
-6 -9 -17 -17 -26 -17 -9 0 -24 -6 -32 -13 -9 -8 -38 -22 -64 -31 -30 -11 -51
-26 -57 -40 -4 -12 -15 -28 -24 -35 -9 -7 -16 -19 -16 -26 0 -8 -5 -15 -10
-17 -15 -5 15 -74 35 -82 20 -7 65 3 65 15 0 5 6 9 13 9 8 0 33 14 55 30 23
17 47 30 52 30 14 0 59 51 60 67 0 6 11 25 25 41 14 17 25 35 25 41 0 6 9 11
20 11 15 0 20 7 20 26 0 23 2 25 16 13 14 -11 18 -10 30 6 8 10 14 22 14 27 0
4 12 8 27 8 24 0 25 1 11 18 -9 9 -18 26 -20 37 -3 18 -4 18 -10 3z"/>
<path d="M22423 35735 c-11 -8 -23 -12 -26 -9 -3 3 -23 -6 -46 -20 -22 -14
-45 -26 -51 -26 -5 0 -10 -4 -10 -10 0 -5 -12 -16 -27 -24 -32 -16 -103 -83
-103 -96 0 -17 22 -22 51 -10 16 7 29 16 29 21 0 5 11 9 24 9 14 0 27 4 30 9
3 5 29 21 58 36 29 14 60 35 69 45 8 10 24 20 35 22 26 4 29 40 6 55 -15 9
-24 9 -39 -2z"/>
<path d="M22070 35500 c-13 -8 -13 -10 2 -10 9 0 20 5 23 10 8 13 -5 13 -25 0z"/>
<path d="M21810 34435 c-7 -8 -18 -15 -26 -15 -7 0 -24 -11 -38 -25 -16 -16
-20 -25 -11 -25 8 0 17 5 20 10 4 6 15 8 25 5 11 -3 20 0 24 10 3 8 12 15 21
15 8 0 15 9 15 20 0 24 -13 26 -30 5z"/>
<path d="M22677 34283 c-6 -34 -3 -53 7 -42 9 10 16 79 8 79 -5 0 -12 -17 -15
-37z"/>
<path d="M22257 34132 c-24 -5 -58 -23 -82 -45 -11 -9 -37 -32 -58 -49 -46
-38 -63 -74 -45 -95 9 -11 9 -16 -1 -22 -10 -6 -9 -10 3 -14 9 -4 13 -13 10
-22 -8 -19 24 -45 45 -37 9 3 12 1 7 -6 -5 -8 8 -9 45 -5 59 7 92 30 116 80 8
18 21 33 28 33 19 0 65 84 65 118 0 16 -6 35 -14 41 -16 13 -94 28 -119 23z"/>
<path d="M2641 20554 c0 -11 3 -14 6 -6 3 7 2 16 -1 19 -3 4 -6 -2 -5 -13z"/>
<path d="M2665 20510 c3 -5 8 -10 11 -10 2 0 4 5 4 10 0 6 -5 10 -11 10 -5 0
-7 -4 -4 -10z"/>
<path d="M2695 20470 c-3 -6 1 -13 9 -16 9 -3 16 -13 16 -22 0 -8 2 -13 5 -10
8 8 -6 58 -15 58 -5 0 -12 -5 -15 -10z"/>
<path d="M2770 20350 c0 -5 14 -17 31 -26 l31 -16 -18 26 c-19 25 -44 35 -44
16z"/>
<path d="M2856 20235 c-3 -9 0 -15 9 -15 16 0 20 16 6 24 -5 3 -11 -1 -15 -9z"/>
<path d="M25753 19480 c0 -25 2 -35 4 -22 2 12 2 32 0 45 -2 12 -4 2 -4 -23z"/>
<path d="M25766 18739 c-10 -96 -9 -99 19 -99 25 0 25 1 25 80 0 71 -2 80 -19
80 -15 0 -19 -11 -25 -61z"/>
<path d="M25834 18419 c3 -34 6 -124 6 -200 0 -117 2 -139 15 -139 13 0 15 29
15 200 0 198 0 200 -21 200 -21 0 -22 -3 -15 -61z"/>
<path d="M25810 17880 c0 -29 4 -40 15 -40 11 0 15 11 15 40 0 29 -4 40 -15
40 -11 0 -15 -11 -15 -40z"/>
<path d="M5791 16925 c19 -13 39 -28 44 -32 6 -5 21 -14 35 -21 28 -14 55 -31
125 -80 26 -18 51 -32 56 -30 5 2 -22 23 -61 48 -38 25 -82 55 -98 67 -15 13
-32 23 -39 23 -6 0 -25 11 -41 25 -17 14 -36 25 -43 25 -7 0 3 -11 22 -25z"/>
<path d="M25760 16720 c0 -64 3 -80 15 -80 12 0 15 16 15 80 0 64 -3 80 -15
80 -12 0 -15 -16 -15 -80z"/>
<path d="M6102 16728 c3 -7 13 -15 23 -17 17 -3 17 -2 3 13 -20 19 -31 21 -26
4z"/>
<path d="M25600 15904 c0 -14 3 -14 15 -4 8 7 15 14 15 16 0 2 -7 4 -15 4 -8
0 -15 -7 -15 -16z"/>
<path d="M25443 15480 c0 -25 2 -35 4 -22 2 12 2 32 0 45 -2 12 -4 2 -4 -23z"/>
<path d="M25113 14920 c0 -25 2 -35 4 -22 2 12 2 32 0 45 -2 12 -4 2 -4 -23z"/>
<path d="M24990 14790 c0 -5 5 -10 10 -10 6 0 10 5 10 10 0 6 -4 10 -10 10 -5
0 -10 -4 -10 -10z"/>
<path d="M14295 11830 c3 -5 10 -10 16 -10 5 0 9 5 9 10 0 6 -7 10 -16 10 -8
0 -12 -4 -9 -10z"/>
</g>
</svg>
